<?xml version="1.0" encoding="UTF-8"?>
<svg id="icons" xmlns="http://www.w3.org/2000/svg" viewBox="0 0 100 100">
  <defs>
    <style>
      .cls-1 {
        fill: #fff;
      }
    </style>
  </defs>
  <path d="M33.08,20.7c-7.6,0-13.75,6.16-13.75,13.75s6.16,13.75,13.75,13.75,13.75-6.16,13.75-13.75-6.16-13.75-13.75-13.75ZM33.08,43.21c-4.83,0-8.75-3.93-8.75-8.75s3.93-8.75,8.75-8.75,8.75,3.93,8.75,8.75-3.93,8.75-8.75,8.75ZM72.32,59.39c-7.6,0-13.75,6.16-13.75,13.75s6.16,13.75,13.75,13.75,13.75-6.16,13.75-13.75-6.16-13.75-13.75-13.75ZM72.32,81.9c-4.83,0-8.75-3.93-8.75-8.75s3.93-8.75,8.75-8.75,8.75,3.93,8.75,8.75-3.93,8.75-8.75,8.75ZM63.06,43.17c.49.49,1.13.73,1.77.73s1.28-.24,1.77-.73l5.73-5.73,5.73,5.73c.49.49,1.13.73,1.77.73s1.28-.24,1.77-.73c.98-.98.98-2.56,0-3.54l-5.73-5.73,5.73-5.73c.98-.98.98-2.56,0-3.54s-2.56-.98-3.54,0l-5.73,5.73-5.73-5.73c-.98-.98-2.56-.98-3.54,0s-.98,2.56,0,3.54l5.73,5.73-5.73,5.73c-.98.98-.98,2.56,0,3.54ZM42.34,63.88c-.98-.98-2.56-.98-3.54,0l-5.73,5.73-5.73-5.73c-.98-.98-2.56-.98-3.54,0s-.98,2.56,0,3.54l5.73,5.73-5.73,5.73c-.98.98-.98,2.56,0,3.54.49.49,1.13.73,1.77.73s1.28-.24,1.77-.73l5.73-5.73,5.73,5.73c.49.49,1.13.73,1.77.73s1.28-.24,1.77-.73c.98-.98.98-2.56,0-3.54l-5.73-5.73,5.73-5.73c.98-.98.98-2.56,0-3.54Z"/>
  <path class="cls-1" d="M31.08,17.7c-7.6,0-13.75,6.16-13.75,13.75s6.16,13.75,13.75,13.75,13.75-6.16,13.75-13.75-6.16-13.75-13.75-13.75ZM31.08,40.21c-4.83,0-8.75-3.93-8.75-8.75s3.93-8.75,8.75-8.75,8.75,3.93,8.75,8.75-3.93,8.75-8.75,8.75ZM70.32,56.39c-7.6,0-13.75,6.16-13.75,13.75s6.16,13.75,13.75,13.75,13.75-6.16,13.75-13.75-6.16-13.75-13.75-13.75ZM70.32,78.9c-4.83,0-8.75-3.93-8.75-8.75s3.93-8.75,8.75-8.75,8.75,3.93,8.75,8.75-3.93,8.75-8.75,8.75ZM61.06,40.17c.49.49,1.13.73,1.77.73s1.28-.24,1.77-.73l5.73-5.73,5.73,5.73c.49.49,1.13.73,1.77.73s1.28-.24,1.77-.73c.98-.98.98-2.56,0-3.54l-5.73-5.73,5.73-5.73c.98-.98.98-2.56,0-3.54s-2.56-.98-3.54,0l-5.73,5.73-5.73-5.73c-.98-.98-2.56-.98-3.54,0s-.98,2.56,0,3.54l5.73,5.73-5.73,5.73c-.98.98-.98,2.56,0,3.54ZM40.34,60.88c-.98-.98-2.56-.98-3.54,0l-5.73,5.73-5.73-5.73c-.98-.98-2.56-.98-3.54,0s-.98,2.56,0,3.54l5.73,5.73-5.73,5.73c-.98.98-.98,2.56,0,3.54.49.49,1.13.73,1.77.73s1.28-.24,1.77-.73l5.73-5.73,5.73,5.73c.49.49,1.13.73,1.77.73s1.28-.24,1.77-.73c.98-.98.98-2.56,0-3.54l-5.73-5.73,5.73-5.73c.98-.98.98-2.56,0-3.54Z"/>
</svg>