<?xml version="1.0" encoding="UTF-8"?>
<svg id="icons" xmlns="http://www.w3.org/2000/svg" viewBox="0 0 100 100">
    <defs>
        <style>
            .cls-1 {
            fill: #fff;
            }

            .cls-2 {
            fill: #ffa627;
            }
        </style>
    </defs>
    <path d="M8.7,36.49v33.02c0,4.26,3.49,7.75,7.75,7.75h5.19v-5h-5.19c-1.49,0-2.75-1.26-2.75-2.75v-33.02c0-1.49,1.26-2.75,2.75-2.75h5.19v-5h-5.19c-4.26,0-7.75,3.49-7.75,7.75ZM84,28.74h-44.48v5h44.48c1.49,0,2.75,1.26,2.75,2.75v33.02c0,1.49-1.26,2.75-2.75,2.75h-44.48v5h44.48c4.26,0,7.75-3.49,7.75-7.75v-33.02c0-4.26-3.49-7.75-7.75-7.75Z"/>
    <path d="M55.31,47.62c-.99-.64-2.13-.98-3.28-.98-.42,0-.85.05-1.28.14-1.58.34-2.94,1.27-3.82,2.63-.88,1.36-1.18,2.98-.84,4.56.34,1.58,1.27,2.94,2.63,3.82,1.36.88,2.97,1.18,4.56.84,3.27-.7,5.36-3.92,4.66-7.19-.34-1.58-1.27-2.94-2.63-3.82Z"/>
    <path class="cls-2"
          d="M47.11,55.38c1.36.88,2.97,1.18,4.56.84,3.27-.7,5.36-3.92,4.66-7.19-.34-1.58-1.27-2.94-2.63-3.82-.99-.64-2.13-.98-3.28-.98-.42,0-.85.05-1.28.14-1.58.34-2.94,1.27-3.82,2.63-.88,1.36-1.18,2.98-.84,4.56s1.27,2.94,2.63,3.82Z"/>
    <path d="M75.42,47.62c-.99-.64-2.13-.98-3.28-.98-.42,0-.85.05-1.28.14-1.58.34-2.94,1.27-3.82,2.63-.88,1.36-1.18,2.98-.84,4.56.34,1.58,1.27,2.94,2.63,3.82,1.36.88,2.97,1.18,4.56.84,3.27-.7,5.36-3.92,4.66-7.19-.34-1.58-1.27-2.94-2.63-3.82Z"/>
    <path class="cls-2"
          d="M67.23,55.38c1.36.88,2.97,1.18,4.56.84,3.27-.7,5.36-3.92,4.66-7.19-.34-1.58-1.27-2.94-2.63-3.82-.99-.64-2.13-.98-3.28-.98-.42,0-.85.05-1.28.14-1.58.34-2.94,1.27-3.82,2.63-.88,1.36-1.18,2.98-.84,4.56s1.27,2.94,2.63,3.82Z"/>
    <polygon
            points="39.52 19.61 39.52 13.06 21.65 13.06 21.65 19.61 27.31 19.61 27.31 86.39 21.65 86.39 21.65 92.94 39.52 92.94 39.52 86.39 33.86 86.39 33.86 19.61 39.52 19.61"/>
    <polygon class="cls-1"
             points="38.52 16.61 38.52 10.06 20.65 10.06 20.65 16.61 26.31 16.61 26.31 83.39 20.65 83.39 20.65 89.94 38.52 89.94 38.52 83.39 32.86 83.39 32.86 16.61 38.52 16.61"/>
    <path class="cls-1"
          d="M7.7,33.49v33.02c0,4.26,3.49,7.75,7.75,7.75h5.19v-5h-5.19c-1.49,0-2.75-1.26-2.75-2.75v-33.02c0-1.49,1.26-2.75,2.75-2.75h5.19v-5h-5.19c-4.26,0-7.75,3.49-7.75,7.75ZM83,25.74h-44.48v5h44.48c1.49,0,2.75,1.26,2.75,2.75v33.02c0,1.49-1.26,2.75-2.75,2.75h-44.48v5h44.48c4.26,0,7.75-3.49,7.75-7.75v-33.02c0-4.26-3.49-7.75-7.75-7.75Z"/>
</svg>