<?xml version="1.0" encoding="UTF-8"?>
<svg id="icons" xmlns="http://www.w3.org/2000/svg" viewBox="0 0 100 100">
  <defs>
    <style>
      .cls-1 {
        fill: #67a900;
      }
    </style>
  </defs>
  <path d="M47.3,65.96v-10.28l-8.27-16.15c-.14-.33-.28-.89-.28-1.36,0-1.64,1.64-3.05,3.33-3.05.99,0,2.11.42,2.68,1.41l5.87,11.65,5.82-11.65c.57-.99,1.69-1.41,2.73-1.41,1.69,0,3.33,1.41,3.33,3.05,0,.42-.19.94-.33,1.36l-8.22,16.15v10.28c0,1.64-1.45,3.1-3.33,3.1s-3.33-1.41-3.33-3.1Z"/>
  <path class="cls-1" d="M45.93,63.91v-10.28l-8.27-16.15c-.14-.33-.28-.89-.28-1.36,0-1.64,1.64-3.05,3.33-3.05.99,0,2.11.42,2.68,1.41l5.87,11.65,5.82-11.65c.57-.99,1.69-1.41,2.73-1.41,1.69,0,3.33,1.41,3.33,3.05,0,.42-.19.94-.33,1.36l-8.22,16.15v10.28c0,1.64-1.45,3.1-3.33,3.1s-3.33-1.41-3.33-3.1Z"/>
</svg>