<?xml version="1.0" encoding="UTF-8"?>
<svg id="icons" xmlns="http://www.w3.org/2000/svg" viewBox="0 0 100 100">
  <defs>
    <style>
      .cls-1 {
        fill: #fff;
      }

      .cls-2 {
        fill: #4d8dfc;
      }
    </style>
  </defs>
  <path class="cls-2" d="M83.07,85.57H16.93c-1.38,0-2.5-1.12-2.5-2.5V16.93c0-1.38,1.12-2.5,2.5-2.5h66.14c1.38,0,2.5,1.12,2.5,2.5v66.14c0,1.38-1.12,2.5-2.5,2.5ZM19.43,80.57h61.14V19.43H19.43v61.14Z"/>
  <polygon class="cls-2" points="65.28 31.38 80.28 16.38 83.8 19.93 68.84 34.89 65.28 31.38"/>
  <g>
    <rect x="29.23" y="29.23" width="41.54" height="41.54"/>
    <path class="cls-1" d="M70.77,71.77H29.23c-.55,0-1-.45-1-1V29.23c0-.55.45-1,1-1h41.54c.55,0,1,.45,1,1v41.54c0,.55-.45,1-1,1ZM30.23,69.77h39.54V30.23H30.23v39.54Z"/>
  </g>
</svg>