<?xml version="1.0" encoding="UTF-8"?>
<svg id="icons" xmlns="http://www.w3.org/2000/svg" viewBox="0 0 100 100">
  <defs>
    <style>
      .cls-1 {
        fill: #fff;
      }
    </style>
  </defs>
  <path class="cls-1" d="M70.6,67.91c.73,1.02.44,2.05.44,2.93,0,3.36-3.07,7.01-7.3,7.01-6.14,0-9.79-10.08-13.58-15.64-3.95,5.56-7.6,15.64-13.74,15.64-4.23,0-7.3-3.65-7.3-7.01,0-.88-.29-1.9.44-2.93l10.52-13-12.86-2.63c-3.65-.73-7.45-3.07-7.45-7.01,0-4.67,3.65-7.01,6.58-7.01.58,0,1.17,0,1.61.15,5.4,1.9,10.81,4.23,16.21,6.13l-1.32-13.14c-.14-.44-.14-.88-.14-1.17,0-2.77,1.76-7.89,7.3-7.89s7.3,5.12,7.3,7.89c0,.29,0,.73-.14,1.17l-1.31,13.14c5.4-1.9,10.8-4.23,16.21-6.13.44-.15,1.02-.15,1.61-.15,2.91,0,6.57,2.34,6.57,7.01,0,3.94-3.79,6.28-7.45,7.01l-12.86,2.63,10.67,13Z"/>
</svg>