<?xml version="1.0" encoding="UTF-8"?>
<svg id="icons" xmlns="http://www.w3.org/2000/svg" viewBox="0 0 100 100">
  <defs>
    <style>
      .cls-1 {
        fill: #fff;
      }

      .cls-2 {
        fill: #4d8dfc;
      }
    </style>
  </defs>
  <rect class="cls-1" x="34.71" y="34.71" width="30.57" height="30.57"/>
  <rect class="cls-1" x="0" y="47.5" width="15.65" height="5"/>
  <rect class="cls-1" x="84.35" y="47.5" width="15.65" height="5"/>
  <path class="cls-2" d="M49.92,87.94c-7.25,0-14.34-2.08-20.56-6.11h0c-8.5-5.51-14.35-14-16.46-23.91-2.11-9.91-.24-20.05,5.27-28.55,5.51-8.5,14-14.35,23.92-16.46,2.64-.56,5.33-.85,7.99-.85,7.28,0,14.39,2.12,20.56,6.12,8.5,5.51,14.35,14,16.46,23.91,2.11,9.89.24,20.03-5.28,28.54-5.52,8.51-14.01,14.36-23.9,16.47-2.66.57-5.34.85-8,.85ZM50.07,20.06c-2.1,0-4.22.23-6.31.67-7.82,1.67-14.52,6.28-18.87,12.99-4.35,6.71-5.83,14.71-4.16,22.53,1.67,7.82,6.28,14.52,12.99,18.87h0c6.7,4.35,14.7,5.82,22.53,4.15,7.8-1.66,14.5-6.28,18.85-13,4.35-6.72,5.83-14.71,4.17-22.52-1.67-7.82-6.28-14.52-12.99-18.87-4.87-3.16-10.47-4.83-16.21-4.83Z"/>
</svg>