<?xml version="1.0" encoding="UTF-8"?>
<svg id="icons" xmlns="http://www.w3.org/2000/svg" viewBox="0 0 100 100">
  <defs>
    <style>
      .cls-1 {
        fill: #fff;
      }

      .cls-2 {
        fill: #4d8dfc;
      }

      .cls-3 {
        fill: #3f7eff;
      }
    </style>
  </defs>
  <g>
    <path class="cls-2" d="M21.3,83.57c1.42.92,3.1,1.23,4.76.88,3.41-.73,5.59-4.09,4.87-7.51-.63-2.97-3.26-5.01-6.18-5.01-.44,0-.88.05-1.32.14-3.41.73-5.59,4.09-4.87,7.51.35,1.65,1.33,3.07,2.75,3.99Z"/>
    <path d="M18.58,87.77c1.86,1.2,3.98,1.83,6.14,1.83.79,0,1.59-.08,2.39-.25,6.11-1.3,10.02-7.33,8.71-13.44-1.3-6.11-7.33-10.01-13.44-8.71-6.11,1.3-10.02,7.33-8.71,13.44.63,2.96,2.38,5.5,4.92,7.14ZM23.43,72.08c.44-.09.88-.14,1.32-.14,2.92,0,5.55,2.04,6.18,5.01.73,3.41-1.46,6.78-4.87,7.51-1.66.35-3.34.04-4.76-.88-1.42-.92-2.39-2.34-2.75-3.99-.73-3.41,1.46-6.78,4.87-7.51Z"/>
  </g>
  <path d="M56.33,78.33c-.04,3.49-2.91,6.29-6.4,6.25-1.69-.02-3.27-.7-4.45-1.9-1.18-1.21-1.82-2.8-1.8-4.49"/>
  <path d="M38.68,78.13c-.04,3.03,1.11,5.88,3.22,8.05,1.55,1.58,3.48,2.66,5.59,3.13.77.17,1.57.27,2.38.28,6.24.07,11.38-4.95,11.46-11.19V25.78c.07-6.25-4.96-11.38-11.19-11.46-3.03-.03-5.88,1.11-8.05,3.23s-3.37,4.94-3.41,7.97"/>
  <path class="cls-1" d="M43.68,25.58c.02-1.69.69-3.27,1.9-4.45s2.8-1.82,4.49-1.8c.45,0,.89.06,1.32.15,2.85.64,4.97,3.21,4.93,6.24v52.61c-.04,3.49-2.91,6.29-6.4,6.25-1.69-.02-3.27-.7-4.45-1.9-1.18-1.21-1.82-2.8-1.8-4.49"/>
  <path d="M63.93,78.13c-.04,3.03,1.11,5.88,3.22,8.05,1.55,1.58,3.48,2.66,5.59,3.13.77.17,1.57.27,2.38.28,6.24.07,11.38-4.95,11.46-11.19v-29.8c.07-6.25-4.96-11.38-11.19-11.46-3.03-.03-5.88,1.11-8.05,3.23s-3.37,4.94-3.41,7.97"/>
  <path class="cls-3" d="M68.93,48.39c.02-1.69.69-3.27,1.9-4.45s2.8-1.82,4.49-1.8c.45,0,.89.06,1.32.15,2.85.64,4.97,3.21,4.93,6.24v29.8c-.04,3.49-2.91,6.29-6.4,6.25-1.69-.02-3.27-.7-4.45-1.9-1.18-1.21-1.82-2.8-1.8-4.49"/>
</svg>