<?xml version="1.0" encoding="UTF-8"?>
<svg id="Layer_1" xmlns="http://www.w3.org/2000/svg" version="1.1" viewBox="0 0 48 46">
    <!-- Generator: Adobe Illustrator 30.3.0, SVG Export Plug-In . SVG Version: 2.1.3 Build 182)  -->
    <defs>
        <style>
            .st0 {
            fill: #3b82f6;
            }
        </style>
    </defs>
    <path class="st0"
          d="M38.49,14.75l-6.25-6.25c-4.98-4.98-10.78-5.74-16.3-.22l-7.54,7.54c-3.25,3.25-5.9,8.42-2.93,11.38l6.97,6.97c1.51,1.51,3.34,1.08,4.79-.37l3.44-3.44c1.04-1.04,1.11-2.87,0-3.98s-2.93-1.04-3.98,0l-1.64,1.64-4.92-4.92c.34-1.1.85-2.17,1.96-3.28l7.54-7.54c2.84-2.84,5.49-2.08,8.2.63l.87.87-5.7,6.33c-.98.98-.95,2.58.13,3.66.98.98,2.68,1.04,3.66.13l6.33-5.7.96.96c2.71,2.71,3.47,5.36.63,8.2l-7.54,7.54c-1.01,1.01-2.12,1.55-3.37,1.86l-.51.13c-.66.16-1.11.16-1.83.88-1.2,1.2-1.2,2.96-.18,3.97,1.83,1.83,6.56.19,9.9-3.15l7.54-7.54c5.52-5.52,4.76-11.32-.22-16.3h-.01Z"/>
</svg>