<?xml version="1.0" encoding="UTF-8"?>
<svg id="icons" xmlns="http://www.w3.org/2000/svg" viewBox="0 0 100 100">
  <defs>
    <style>
      .cls-1 {
        fill: #fff;
      }
    </style>
  </defs>
  <path d="M20.36,88.08c-.98.21-2.09-.1-2.62-.61-.6-.58-.98-1.71-.78-2.64l4.39-20.38,43.89-43.66c5.1-5.08,13.71-3.93,18.37.78s5.55,13.33.5,18.4l-43.57,43.74-20.18,4.36ZM73.96,42.59l5.4-5.42c3.31-2.99,3.61-8.08.73-11.41-2.68-3.1-7.78-3.86-11.15-.98-2.27,1.94-4.25,4.11-6.49,6.32l11.51,11.49ZM37.82,78.73l32.28-32.29-11.5-11.5-32.31,32.32-3.11,14.64,14.65-3.17Z"/>
  <path class="cls-1" d="M18.42,85.17c-.98.21-2.09-.1-2.62-.61-.6-.58-.98-1.71-.78-2.64l4.39-20.38L63.29,17.88c5.1-5.08,13.71-3.93,18.37.78s5.55,13.33.5,18.4l-43.57,43.74-20.18,4.36ZM72.01,39.68l5.4-5.42c3.31-2.99,3.61-8.08.73-11.41-2.68-3.1-7.78-3.86-11.15-.98-2.27,1.94-4.25,4.11-6.49,6.32l11.51,11.49ZM35.87,75.82l32.28-32.29-11.5-11.5-32.31,32.32-3.11,14.64,14.65-3.17Z"/>
  <path class="cls-1" d="M20.27,69.78s-2.56,11.98-2.18,12.12,12.7-2.44,12.7-2.44l-9.49-9.5"/>
</svg>