<?xml version="1.0" encoding="UTF-8"?>
<svg id="icons" xmlns="http://www.w3.org/2000/svg" viewBox="0 0 200 100">
  <defs>
    <style>
      .cls-1 {
        fill: #fff;
      }

      .cls-2 {
        fill: #cb2600;
      }

      .cls-3 {
        fill: #2c80ed;
      }

      .cls-4 {
        fill: #67a900;
      }
    </style>
  </defs>
  <g>
    <path d="M82.86,76.85c-12.42,0-22.52-10.1-22.52-22.52s10.1-22.52,22.52-22.52c5.33,0,10.21,1.87,14.07,4.98l-11.17,9.66,29.41,4.34-.06-29.73-10.33,8.93c-5.81-5.24-13.49-8.43-21.93-8.43-18.1,0-32.77,14.67-32.77,32.77s14.67,32.77,32.77,32.77c14.2,0,26.28-9.03,30.83-21.65l-10.47-1.55c-3.61,7.64-11.37,12.95-20.36,12.95Z"/>
    <path class="cls-1" d="M113.11,17.06l-10.33,8.93c-5.81-5.24-13.49-8.43-21.93-8.43-18.1,0-32.77,14.67-32.77,32.77s14.67,32.77,32.77,32.77c14.2,0,26.28-9.03,30.83-21.65l-10.47-1.55c-3.61,7.64-11.37,12.95-20.36,12.95-12.42,0-22.52-10.1-22.52-22.52s10.1-22.52,22.52-22.52c5.33,0,10.21,1.87,14.07,4.98l-11.17,9.66"/>
  </g>
  <g>
    <polygon points="123.16 19.86 94.41 38.39 94.41 67.77 123.16 86.3 151.91 67.77 151.91 38.39 123.16 19.86"/>
    <g>
      <polygon class="cls-2" points="121.16 83.3 92.41 64.77 92.41 35.39 121.16 53.92 121.16 83.3"/>
      <polygon class="cls-4" points="121.16 83.3 149.91 64.77 149.91 35.39 121.16 53.92 121.16 83.3"/>
      <polygon class="cls-3" points="121.16 53.92 149.91 35.39 121.16 16.86 92.41 35.39 121.16 53.92"/>
    </g>
  </g>
  <polyline class="cls-1" points="83.76 42.44 113.17 46.79 113.11 17.06"/>
</svg>