<?xml version="1.0" encoding="UTF-8"?>
<svg id="icons" xmlns="http://www.w3.org/2000/svg" viewBox="0 0 200 100">
  <defs>
    <style>
      .cls-1 {
        fill: #fff;
      }
    </style>
  </defs>
  <g>
    <path d="M59.59,44.03l-3.76,2.29c-.9.57-1.71,1-2.81,1-1.43,0-3.05-.72-3.05-2.76,0-1.24.57-2.14,1.47-2.67l9.43-5.52c.67-.38,1.19-.53,1.86-.53,2,0,3.53,1.38,3.53,3.19v28.15c0,1.62-1.52,3.05-3.34,3.05s-3.34-1.43-3.34-3.05v-23.15Z"/>
    <path d="M107.91,69.85h-15.67c-2,0-3.38-1.38-3.38-3.14,0-.67.05-1.52.38-2.24,1.9-4.19,5.38-7.24,8.77-10.29,2.62-2.38,6.43-5.1,6.43-8.62,0-2.43-1.52-4.33-4.48-4.33-1.62,0-2.86.29-4,.76-1.05.43-2,1.29-3.38,1.29-1.62,0-3.24-1.14-3.24-2.9,0-3.48,6.81-4.95,10.67-4.95,6.95,0,11,4.29,11,9.67,0,4.05-1.57,6.72-3.77,9-3.19,3.33-7.38,6.29-9.95,9.81h10.62c1.86,0,3.29,1.29,3.29,2.95s-1.43,3-3.29,3Z"/>
    <path d="M142.65,49.32c4.95.9,8.29,4.38,8.29,9.53s-3.57,11.38-11.86,11.38c-2.24,0-9.86-.62-9.86-4.57,0-1.57,1.38-2.95,3.14-2.95,2,0,3.24,1.76,6.48,1.76,4.14,0,5.48-2.86,5.48-5.33,0-3.14-2.09-4.38-5.43-4.38-1.24,0-1.24.52-2.43.52-1.72,0-3.1-1.38-3.1-3.14,0-.48.1-.86.33-1.14l7.1-8.62h-7.67c-1.86,0-3.29-1.33-3.29-3s1.43-3.14,3.29-3.14h13.29c2.05,0,3.48,1.38,3.48,3.24,0,.81-.29,1.57-.76,2.14l-6.48,7.72Z"/>
  </g>
  <g>
    <path class="cls-1" d="M57.59,41.03l-3.76,2.29c-.9.57-1.71,1-2.81,1-1.43,0-3.05-.72-3.05-2.76,0-1.24.57-2.14,1.47-2.67l9.43-5.52c.67-.38,1.19-.53,1.86-.53,2,0,3.53,1.38,3.53,3.19v28.15c0,1.62-1.52,3.05-3.34,3.05s-3.34-1.43-3.34-3.05v-23.15Z"/>
    <path class="cls-1" d="M105.91,66.85h-15.67c-2,0-3.38-1.38-3.38-3.14,0-.67.05-1.52.38-2.24,1.9-4.19,5.38-7.24,8.77-10.29,2.62-2.38,6.43-5.1,6.43-8.62,0-2.43-1.52-4.33-4.48-4.33-1.62,0-2.86.29-4,.76-1.05.43-2,1.29-3.38,1.29-1.62,0-3.24-1.14-3.24-2.9,0-3.48,6.81-4.95,10.67-4.95,6.95,0,11,4.29,11,9.67,0,4.05-1.57,6.72-3.77,9-3.19,3.33-7.38,6.29-9.95,9.81h10.62c1.86,0,3.29,1.29,3.29,2.95s-1.43,3-3.29,3Z"/>
    <path class="cls-1" d="M140.65,46.32c4.95.9,8.29,4.38,8.29,9.53s-3.57,11.38-11.86,11.38c-2.24,0-9.86-.62-9.86-4.57,0-1.57,1.38-2.95,3.14-2.95,2,0,3.24,1.76,6.48,1.76,4.14,0,5.48-2.86,5.48-5.33,0-3.14-2.09-4.38-5.43-4.38-1.24,0-1.24.52-2.43.52-1.72,0-3.1-1.38-3.1-3.14,0-.48.1-.86.33-1.14l7.1-8.62h-7.67c-1.86,0-3.29-1.33-3.29-3s1.43-3.14,3.29-3.14h13.29c2.05,0,3.48,1.38,3.48,3.24,0,.81-.29,1.57-.76,2.14l-6.48,7.72Z"/>
  </g>
</svg>