<?xml version="1.0" encoding="UTF-8"?>
<svg id="icons" xmlns="http://www.w3.org/2000/svg" viewBox="0 0 100 100">
  <defs>
    <style>
      .cls-1 {
        opacity: .25;
      }

      .cls-2 {
        fill: #fff;
        opacity: .5;
      }

      .cls-3 {
        fill: #e6e6e6;
      }
    </style>
  </defs>
  <circle cx="52" cy="53" r="30.34"/>
  <circle class="cls-3" cx="50" cy="50" r="30.34"/>
  <path class="cls-1" d="M20.33,43.65c-.44,2.05-.67,4.17-.67,6.35,0,16.76,13.59,30.34,30.34,30.34,2.09,0,4.12-.21,6.09-.61-18.37-3.08-32.85-17.65-35.76-36.08Z"/>
  <g class="cls-1">
    <path d="M47.48,41.72l-4.09,2.49c-.98.62-1.87,1.09-3.06,1.09-1.55,0-3.32-.78-3.32-3,0-1.35.62-2.33,1.61-2.9l10.26-6.01c.73-.41,1.3-.57,2.02-.57,2.18,0,3.83,1.5,3.83,3.47v30.62c0,1.76-1.66,3.32-3.63,3.32s-3.63-1.55-3.63-3.32v-25.18Z"/>
  </g>
  <ellipse class="cls-2" cx="62.77" cy="34.82" rx="6.64" ry="12.87" transform="translate(-2.4 64.9) rotate(-53.8)"/>
</svg>