<?xml version="1.0" encoding="UTF-8"?>
<svg id="icons" xmlns="http://www.w3.org/2000/svg" viewBox="0 0 100 100">
  <defs>
    <style>
      .cls-1 {
        fill: #fff;
      }

      .cls-2 {
        fill: #4d8dfc;
      }
    </style>
  </defs>
  <g>
    <rect x="29.23" y="29.23" width="41.54" height="41.54"/>
    <path class="cls-1" d="M70.77,71.77H29.23c-.55,0-1-.45-1-1V29.23c0-.55.45-1,1-1h41.54c.55,0,1,.45,1,1v41.54c0,.55-.45,1-1,1ZM30.23,69.77h39.54V30.23H30.23v39.54Z"/>
  </g>
  <path class="cls-2" d="M45.57,56.84c1.83,1.18,4,1.59,6.13,1.13,4.39-.94,7.21-5.28,6.27-9.67-.45-2.13-1.71-3.95-3.54-5.14-1.34-.87-2.86-1.31-4.42-1.31-.57,0-1.15.06-1.72.18-2.13.45-3.95,1.71-5.14,3.54-1.18,1.83-1.59,4.01-1.13,6.13s1.71,3.95,3.54,5.14Z"/>
</svg>