<?xml version="1.0" encoding="UTF-8"?>
<svg id="icons" xmlns="http://www.w3.org/2000/svg" viewBox="0 0 100 100">
    <defs>
        <style>
            .cls-1 {
            fill: #fff;
            }

            .cls-2 {
            fill: #4d8dfc;
            }
        </style>
    </defs>
    <g>
        <path class="cls-1"
              d="M30.94,31.25c-11.83,11.63-13.73,30.75-4.54,44.58,1.28,1.8,2.94,2.54,4.56,2.54,3.89,0,7.48-4.35,4.56-8.77-2.13-2.96-3.6-6.38-4.28-9.98-1.76-8.7,1.57-18.15,8.3-23.96,3.9-3.53,8.78-5.28,13.64-5.28,5.53,0,11.05,2.26,15.09,6.69,4.51,4.76,5.83,11.98,2.99,18-1.57,3.34-4.29,6.27-7.68,7.79-1.58.71-3.3,1.05-5.03,1.05-3.81,0-7.67-1.66-10.09-4.68-5.3-5.76-1.69-16.36,6.38-16.74.11,0,.23,0,.34,0,5.7,0,10.35,6.43,6.44,11.4-1.07,1.5-2.75,2.25-4.42,2.24-1.92,0-3.81-.99-4.72-2.95-.76-1.68-.23-3.83,1.25-4.96.59-.51,1.34-.75,2.09-.75,1.06,0,2.12.48,2.75,1.39.13.18.33.27.53.27.12,0,.24-.03.35-.1.3-.2.39-.6.19-.9-.7-1.08-1.87-1.86-3.16-2.07-.28-.05-.56-.08-.84-.08-2.33,0-4.45,1.84-5.08,4.08-1.25,3.93,2.17,7.94,6.07,8.31.31.04.61.06.92.06,5,0,8.93-5.23,8.2-10.13-.29-2.59-1.79-4.94-3.77-6.59-2.24-1.81-4.77-2.63-7.26-2.63-4.97,0-9.79,3.26-11.91,8.34-3.28,7.53.76,16.02,7.79,19.68,2.59,1.42,5.53,2.11,8.47,2.11,4.17,0,8.37-1.39,11.63-4.07,7.81-5.94,10.72-17.05,7.04-26.15-4.15-10.17-14.8-16.82-25.69-16.82-.75,0-1.5.03-2.24.09-3.88.33-7.75,1.45-11.18,3.28-2.82,1.52-5.37,3.54-7.69,5.72Z"/>
        <path
            d="M23.08,78.05l.03.05.04.05c1.94,2.72,4.71,4.22,7.81,4.22h0c3.5,0,6.85-2.01,8.52-5.12,1.68-3.11,1.45-6.71-.62-9.85l-.05-.07-.05-.07c-1.79-2.48-3.03-5.37-3.6-8.38-1.46-7.23,1.35-15.33,6.98-20.19l.04-.03.03-.03c3.02-2.73,6.91-4.24,10.96-4.24,2.88,0,5.69.77,8.15,2.19-2.06-.99-4.29-1.5-6.6-1.5-6.63,0-12.89,4.33-15.59,10.77-3.91,9.03.29,19.91,9.58,24.78,3.1,1.69,6.68,2.59,10.36,2.59,5.2,0,10.21-1.75,14.11-4.93,9.17-7.01,12.65-19.95,8.27-30.79-4.64-11.38-16.73-19.32-29.4-19.32-.86,0-1.73.04-2.58.11-4.47.39-8.87,1.68-12.73,3.74-2.88,1.56-5.68,3.63-8.55,6.34l-.03.03-.03.03c-13.12,12.91-15.3,34.25-5.06,49.64ZM52.06,22.15c10.89,0,21.55,6.65,25.69,16.82,3.68,9.1.77,20.22-7.04,26.15-3.26,2.68-7.45,4.07-11.63,4.07-2.95,0-5.88-.69-8.47-2.11-7.02-3.67-11.06-12.16-7.79-19.68,2.11-5.08,6.93-8.34,11.91-8.34,2.49,0,5.02.82,7.26,2.63,1.98,1.66,3.48,4,3.77,6.59.73,4.9-3.2,10.13-8.2,10.13-.3,0-.61-.02-.92-.06-3.9-.37-7.32-4.37-6.07-8.31.64-2.24,2.75-4.08,5.08-4.08.28,0,.56.03.84.08,1.29.22,2.46.99,3.16,2.07.2.3.11.71-.19.9-.11.07-.23.1-.35.1-.2,0-.41-.1-.53-.27-.63-.91-1.69-1.39-2.75-1.39-.75,0-1.5.24-2.09.75-1.48,1.14-2,3.28-1.25,4.96.91,1.96,2.8,2.95,4.72,2.95,1.66,0,3.34-.74,4.42-2.24,3.9-4.98-.74-11.4-6.44-11.4-.11,0-.23,0-.34,0-8.07.38-11.68,10.98-6.38,16.74,2.42,3.02,6.27,4.68,10.09,4.68,1.73,0,3.45-.34,5.03-1.05,3.39-1.53,6.11-4.45,7.68-7.79,2.83-6.02,1.51-13.24-2.99-18-4.04-4.43-9.56-6.69-15.09-6.69-4.86,0-9.74,1.74-13.64,5.28-6.73,5.81-10.05,15.26-8.3,23.96.68,3.61,2.15,7.02,4.28,9.98,2.92,4.43-.67,8.77-4.56,8.77-1.61,0-3.28-.75-4.56-2.54-9.2-13.83-7.29-32.94,4.54-44.58,2.31-2.19,4.87-4.2,7.69-5.72,3.43-1.84,7.31-2.95,11.18-3.28.75-.06,1.5-.09,2.24-.09Z"/>
    </g>
    <path class="cls-2"
          d="M28.91,75.68c.6.39,1.28.59,1.97.59.26,0,.51-.03.77-.08.95-.2,1.77-.76,2.3-1.58,1.09-1.69.61-3.95-1.07-5.04-1.69-1.09-3.95-.61-5.04,1.08-.53.82-.71,1.79-.51,2.74s.76,1.77,1.58,2.3Z"/>
</svg>