<?xml version="1.0" encoding="UTF-8"?>
<svg id="icons" xmlns="http://www.w3.org/2000/svg" viewBox="0 0 200 100">
  <defs>
    <style>
      .cls-1 {
        fill: #fff;
      }
    </style>
  </defs>
  <g>
    <path d="M57.5,67.6c-.46,1.34-1.94,2.17-3.05,2.17-1.8,0-3.33-1.2-3.33-2.96,0-.23.05-.79.14-1.02l9.02-26.32c.6-1.8,1.53-3.15,3.75-3.15s3.14,1.3,3.79,3.15l9.02,26.32c.09.23.14.79.14,1.02,0,1.76-1.43,2.96-3.33,2.96-1.2,0-2.68-.88-3.14-2.17l-1.62-4.67h-9.85l-1.53,4.67ZM64.85,49.74c-.42-1.34-.65-3.1-.83-4.53-.18,1.43-.42,3.19-.83,4.53l-2.45,7.91h6.47l-2.36-7.91Z"/>
    <path d="M94.52,38.78c0-1.48,1.16-2.82,3.19-2.82s3.19,1.34,3.19,2.82v8.14c1.48-.83,2.87-1.3,5.04-1.3,5.87,0,8.28,3.33,8.28,7.68v7.77c0,4.86-3.28,8.6-9.85,8.6s-9.85-3.42-9.85-7.77v-23.12ZM100.9,61.91c0,1.71,1.34,2.78,3.51,2.78,2.31,0,3.42-1.2,3.42-3.14v-8.46c0-1.66-.93-2.64-3.19-2.64-1.48,0-2.78.42-3.75,1.3v10.17Z"/>
    <path d="M132.28,54.6c0-4.95,2.96-8.83,9.57-8.83,2.73,0,7.91.65,7.91,4.02,0,1.11-.55,2.36-2.87,2.36-.46,0-.88-.05-1.53-.28-.97-.37-1.71-.79-3.14-.79-2.54,0-3.56,1.34-3.56,3.52v6.24c0,2.17,1.02,3.51,3.56,3.51,1.43,0,2.22-.42,3.14-.79.46-.19.79-.28,1.43-.28,2.41,0,2.96,1.3,2.96,2.36,0,3.33-5.18,4.02-7.95,4.02-6.52,0-9.53-3.88-9.53-8.83v-6.24Z"/>
  </g>
  <g>
    <path class="cls-1" d="M55.5,64.6c-.46,1.34-1.94,2.17-3.05,2.17-1.8,0-3.33-1.2-3.33-2.96,0-.23.05-.79.14-1.02l9.02-26.32c.6-1.8,1.53-3.15,3.75-3.15s3.14,1.3,3.79,3.15l9.02,26.32c.09.23.14.79.14,1.02,0,1.76-1.43,2.96-3.33,2.96-1.2,0-2.68-.88-3.14-2.17l-1.62-4.67h-9.85l-1.53,4.67ZM62.85,46.74c-.42-1.34-.65-3.1-.83-4.53-.18,1.43-.42,3.19-.83,4.53l-2.45,7.91h6.47l-2.36-7.91Z"/>
    <path class="cls-1" d="M92.52,35.78c0-1.48,1.16-2.82,3.19-2.82s3.19,1.34,3.19,2.82v8.14c1.48-.83,2.87-1.3,5.04-1.3,5.87,0,8.28,3.33,8.28,7.68v7.77c0,4.86-3.28,8.6-9.85,8.6s-9.85-3.42-9.85-7.77v-23.12ZM98.9,58.91c0,1.71,1.34,2.78,3.51,2.78,2.31,0,3.42-1.2,3.42-3.14v-8.46c0-1.66-.93-2.64-3.19-2.64-1.48,0-2.78.42-3.75,1.3v10.17Z"/>
    <path class="cls-1" d="M130.28,51.6c0-4.95,2.96-8.83,9.57-8.83,2.73,0,7.91.65,7.91,4.02,0,1.11-.55,2.36-2.87,2.36-.46,0-.88-.05-1.53-.28-.97-.37-1.71-.79-3.14-.79-2.54,0-3.56,1.34-3.56,3.52v6.24c0,2.17,1.02,3.51,3.56,3.51,1.43,0,2.22-.42,3.14-.79.46-.19.79-.28,1.43-.28,2.41,0,2.96,1.3,2.96,2.36,0,3.33-5.18,4.02-7.95,4.02-6.52,0-9.53-3.88-9.53-8.83v-6.24Z"/>
  </g>
</svg>