<?xml version="1.0" encoding="UTF-8"?>
<svg id="icons" xmlns="http://www.w3.org/2000/svg" viewBox="0 0 100 100">
  <defs>
    <style>
      .cls-1 {
        fill: #fff;
      }
    </style>
  </defs>
  <path d="M43.48,40.17h17.03c2.08,0,3.68-1.61,3.68-3.68s-1.79-3.68-3.68-3.68h-17.03c-1.89,0-3.68,1.6-3.68,3.68s1.6,3.68,3.68,3.68ZM70.52,49.8h-37.03c-1.89,0-3.68,1.6-3.68,3.68s1.6,3.69,3.68,3.69h37.03c2.08,0,3.68-1.61,3.68-3.69s-1.79-3.68-3.68-3.68ZM52,23.17h0c2.08,0,3.68-1.61,3.68-3.68s-1.79-3.68-3.68-3.68h0c-1.89,0-3.68,1.6-3.68,3.68s1.6,3.68,3.68,3.68ZM80.52,66.8H23.48c-1.89,0-3.68,1.6-3.68,3.68s1.6,3.69,3.68,3.69h57.03c2.08,0,3.68-1.61,3.68-3.69s-1.79-3.68-3.68-3.68ZM90.52,83.79H13.48c-1.89,0-3.68,1.61-3.68,3.68s1.6,3.69,3.68,3.69h77.03c2.08,0,3.68-1.61,3.68-3.69s-1.79-3.68-3.68-3.68Z"/>
  <path class="cls-1" d="M41.48,37.17h17.03c2.08,0,3.68-1.61,3.68-3.68s-1.79-3.68-3.68-3.68h-17.03c-1.89,0-3.68,1.6-3.68,3.68s1.6,3.68,3.68,3.68ZM68.52,46.8H31.48c-1.89,0-3.68,1.6-3.68,3.68s1.6,3.69,3.68,3.69h37.03c2.08,0,3.68-1.61,3.68-3.69s-1.79-3.68-3.68-3.68ZM50,20.17h0c2.08,0,3.68-1.61,3.68-3.68s-1.79-3.68-3.68-3.68h0c-1.89,0-3.68,1.6-3.68,3.68s1.6,3.68,3.68,3.68ZM78.52,63.8H21.48c-1.89,0-3.68,1.6-3.68,3.68s1.6,3.69,3.68,3.69h57.03c2.08,0,3.68-1.61,3.68-3.69s-1.79-3.68-3.68-3.68ZM88.52,80.79H11.48c-1.89,0-3.68,1.61-3.68,3.68s1.6,3.69,3.68,3.69h77.03c2.08,0,3.68-1.61,3.68-3.69s-1.79-3.68-3.68-3.68Z"/>
</svg>