<?xml version="1.0" encoding="UTF-8"?>
<svg id="icons" xmlns="http://www.w3.org/2000/svg" viewBox="0 0 100 100">
  <defs>
    <style>
      .cls-1 {
        fill: #fff;
      }
    </style>
  </defs>
  <path class="cls-1" d="M77.53,63.99h0c-.25,0-.5.03-.75.04l-25.59-25.59c-1.79-1.79-4.4-2.28-6.65-1.51l4-11.71c.66-1.93,0-4.77-1.45-6.21l-8.37-8.37c-1.44-1.44-4.29-2.11-6.21-1.45l-5.02,1.71c-.82.28-1.34.75-1.48,1.33-.14.57.12,1.23.74,1.84l5.39,5.37c1.9,1.91,1.89,5.01-.01,6.91l-5.78,5.78c-.92.92-2.14,1.42-3.45,1.42s-2.55-.51-3.47-1.43l-5.37-5.37c-.62-.61-1.27-.88-1.84-.74-.57.14-1.04.66-1.32,1.48l-1.72,5.02c-.66,1.94,0,4.78,1.45,6.22l8.37,8.37c1.44,1.44,4.28,2.1,6.2,1.45l11.72-4c-.77,2.26-.29,4.86,1.51,6.65l25.59,25.6c-.02.25-.04.5-.04.75,0,7.48,6.06,13.54,13.54,13.54s13.54-6.07,13.54-13.54-6.06-13.54-13.54-13.54ZM77.53,84.63c-3.92,0-7.1-3.19-7.1-7.1,0-1.9.73-3.68,2.08-5.02,1.34-1.34,3.12-2.08,5.02-2.08,3.91,0,7.09,3.18,7.09,7.1s-3.18,7.1-7.09,7.1Z"/>
</svg>