<?xml version="1.0" encoding="UTF-8"?>
<svg id="icons" xmlns="http://www.w3.org/2000/svg" viewBox="0 0 100 100">
  <defs>
    <style>
      .cls-1, .cls-2 {
        opacity: .5;
      }

      .cls-1, .cls-3 {
        fill: #ffa627;
      }

      .cls-2 {
        fill: #fff;
      }
    </style>
  </defs>
  <path d="M16.16,27.88h71.93c3.7,0,6.71,3,6.71,6.71v8.99c0,3.7-3,6.71-6.71,6.71H16.16c-3.7,0-6.71-3-6.71-6.71v-8.99c0-3.7,3-6.71,6.71-6.71Z"/>
  <path class="cls-3" d="M14.16,24.88h71.93c3.7,0,6.71,3,6.71,6.71v8.99c0,3.7-3,6.71-6.71,6.71H14.16c-3.7,0-6.71-3-6.71-6.71v-8.99c0-3.7,3-6.71,6.71-6.71Z"/>
  <path class="cls-2" d="M87.5,56.88h-12.12c-2.91,0-5.3,3.02-5.3,6.71v8.99c0,3.69,2.38,6.71,5.3,6.71h12.12c2.91,0,5.3-3.02,5.3-6.71v-8.99c0-3.69-2.38-6.71-5.3-6.71Z"/>
  <polygon class="cls-1" points="25.39 70.58 64.69 70.58 64.69 65.58 25.39 65.58 25.39 47.28 20.39 47.28 20.39 70.16 25.39 70.58"/>
</svg>