<?xml version="1.0" encoding="UTF-8"?>
<svg id="icons" xmlns="http://www.w3.org/2000/svg" viewBox="0 0 200 100">
  <defs>
    <style>
      .cls-1 {
        fill: #b3b3b3;
      }

      .cls-2 {
        fill: #2c80ed;
      }

      .cls-3 {
        fill: none;
        opacity: .5;
        stroke: #000;
        stroke-miterlimit: 10;
        stroke-width: 5px;
      }

      .cls-4 {
        fill: #67a900;
      }
    </style>
  </defs>
  <circle cx="42.28" cy="50.03" r="29.75"/>
  <line class="cls-3" x1="46.38" y1="52.08" x2="155.63" y2="52.08"/>
  <g>
    <path d="M150.75,67.18v-.05c-.52.85-1.37,1.93-3.01,1.93s-3.2-1.5-3.2-3.05c0-.52.24-1.22.47-1.6l8.13-12.96-7.47-11.79c-.23-.47-.37-1.08-.37-1.6,0-1.5,1.46-2.96,3.15-2.96,1.45,0,2.58,1.03,3.24,2.16l5.31,8.73,5.31-8.73c.61-.89,1.64-2.16,3.28-2.16s3.1,1.36,3.1,3.01c0,.47-.19,1.03-.42,1.55l-7.42,11.79,8.13,12.96c.23.38.47,1.08.47,1.6,0,1.55-1.55,3.05-3.14,3.05s-2.49-.99-3.06-1.88l-6.24-10.33-6.24,10.33Z"/>
    <path class="cls-1" d="M149.39,65.13v-.05c-.52.85-1.37,1.93-3.01,1.93s-3.2-1.5-3.2-3.05c0-.52.24-1.22.47-1.6l8.13-12.96-7.47-11.79c-.23-.47-.37-1.08-.37-1.6,0-1.5,1.46-2.96,3.15-2.96,1.45,0,2.58,1.03,3.24,2.16l5.31,8.73,5.31-8.73c.61-.89,1.64-2.16,3.28-2.16s3.1,1.36,3.1,3.01c0,.47-.19,1.03-.42,1.55l-7.42,11.79,8.13,12.96c.23.38.47,1.08.47,1.6,0,1.55-1.55,3.05-3.14,3.05s-2.49-.99-3.06-1.88l-6.24-10.33-6.24,10.33Z"/>
  </g>
  <g>
    <path d="M99.04,65.96v-10.28l-8.27-16.15c-.14-.33-.28-.89-.28-1.36,0-1.64,1.64-3.05,3.33-3.05.99,0,2.11.42,2.68,1.41l5.87,11.65,5.82-11.65c.57-.99,1.69-1.41,2.73-1.41,1.69,0,3.33,1.41,3.33,3.05,0,.42-.19.94-.33,1.36l-8.22,16.15v10.28c0,1.64-1.45,3.1-3.33,3.1s-3.33-1.41-3.33-3.1Z"/>
    <path class="cls-4" d="M97.67,63.91v-10.28l-8.27-16.15c-.14-.33-.28-.89-.28-1.36,0-1.64,1.64-3.05,3.33-3.05.99,0,2.11.42,2.68,1.41l5.87,11.65,5.82-11.65c.57-.99,1.69-1.41,2.73-1.41,1.69,0,3.33,1.41,3.33,3.05,0,.42-.19.94-.33,1.36l-8.22,16.15v10.28c0,1.64-1.45,3.1-3.33,3.1s-3.33-1.41-3.33-3.1Z"/>
  </g>
  <g>
    <path d="M51.75,68.63h-16.1c-1.93,0-3.38-1.45-3.38-3.19,0-.61.42-1.6.66-2.07,4.6-7.61,8.64-14.09,13.29-21.79h-10.61c-1.83,0-3.24-1.32-3.24-3.01s1.41-3.05,3.24-3.05h15.92c1.97,0,3.43,1.41,3.43,3.15,0,.85-.33,1.5-.66,2.02l-13.38,21.88h10.85c1.74,0,3.29,1.32,3.29,3.01s-1.5,3.05-3.29,3.05Z"/>
    <path class="cls-2" d="M50.38,66.58h-16.1c-1.93,0-3.38-1.45-3.38-3.19,0-.61.42-1.6.66-2.07,4.6-7.61,8.64-14.09,13.29-21.79h-10.61c-1.83,0-3.24-1.32-3.24-3.01s1.41-3.05,3.24-3.05h15.92c1.97,0,3.43,1.41,3.43,3.15,0,.85-.33,1.5-.66,2.02l-13.38,21.88h10.85c1.74,0,3.29,1.32,3.29,3.01s-1.5,3.05-3.29,3.05Z"/>
  </g>
</svg>