<?xml version="1.0" encoding="UTF-8"?>
<svg id="icons" xmlns="http://www.w3.org/2000/svg" viewBox="0 0 100 100">
  <defs>
    <style>
      .cls-1 {
        fill: #fff;
      }

      .cls-2 {
        opacity: .5;
      }
    </style>
  </defs>
  <path d="M50.29,83.99c-.06-.32-.16-.63-.28-.93-.13-.31-.28-.6-.46-.87-.18-.27-.39-.53-.63-.76-.23-.23-.48-.44-.75-.62-.28-.18-.57-.33-.87-.46-.3-.12-.61-.22-.93-.28-.65-.13-1.31-.13-1.96,0-.32.06-.63.16-.93.28-.3.13-.6.28-.87.46-.27.18-.53.39-.76.62-.23.23-.44.49-.62.76-.06.09-.1.19-.15.28h-18.55V21.03c0-1.38-1.12-2.5-2.5-2.5s-2.5,1.12-2.5,2.5v63.95c0,1.38,1.12,2.5,2.5,2.5h21.06c.05.09.09.19.14.27.18.28.39.53.62.76.23.24.49.44.76.63.27.18.57.33.87.46.3.12.61.22.93.28.33.07.65.1.98.1s.66-.03.98-.1c.32-.06.63-.16.93-.28.3-.13.59-.28.87-.46.27-.19.52-.39.75-.63.24-.23.45-.48.63-.76.18-.27.33-.56.46-.86.12-.3.22-.61.28-.93.07-.33.1-.65.1-.98s-.03-.65-.1-.98Z"/>
  <path d="M83.97,18.53c-1.38,0-2.5,1.12-2.5,2.5v61.45h-18.54c-.05-.09-.11-.19-.17-.28-.18-.27-.39-.53-.62-.76-.23-.23-.49-.44-.76-.62-.27-.18-.56-.33-.86-.46-.3-.12-.62-.22-.94-.28-.64-.14-1.31-.14-1.95,0-.32.06-.64.16-.94.28-.3.13-.59.28-.86.46-.28.18-.53.39-.76.62s-.44.49-.62.76c-.18.27-.34.56-.46.87-.13.3-.22.61-.29.93-.06.32-.09.65-.09.98,0,1.32.53,2.6,1.46,3.53.23.24.48.44.76.63.27.18.56.33.86.46.3.12.62.22.94.28.32.07.65.1.97.1s.66-.03.98-.1c.32-.06.64-.16.94-.28.3-.13.59-.28.86-.46.27-.19.53-.39.76-.63.31-.3.55-.66.77-1.03h21.06c1.38,0,2.5-1.12,2.5-2.5V21.03c0-1.38-1.12-2.5-2.5-2.5Z"/>
  <path class="cls-1" d="M48.29,80.99c-.06-.32-.16-.63-.28-.93-.13-.31-.28-.6-.46-.87-.18-.27-.39-.53-.63-.76-.23-.23-.48-.44-.75-.62-.28-.18-.57-.33-.87-.46-.3-.12-.61-.22-.93-.28-.65-.13-1.31-.13-1.96,0-.32.06-.63.16-.93.28-.3.13-.6.28-.87.46-.27.18-.53.39-.76.62-.23.23-.44.49-.62.76-.06.09-.1.19-.15.28h-18.55V18.03c0-1.38-1.12-2.5-2.5-2.5s-2.5,1.12-2.5,2.5v63.95c0,1.38,1.12,2.5,2.5,2.5h21.06c.05.09.09.19.14.27.18.28.39.53.62.76.23.24.49.44.76.63.27.18.57.33.87.46.3.12.61.22.93.28.33.07.65.1.98.1s.66-.03.98-.1c.32-.06.63-.16.93-.28.3-.13.59-.28.87-.46.27-.19.52-.39.75-.63.24-.23.45-.48.63-.76.18-.27.33-.56.46-.86.12-.3.22-.61.28-.93.07-.33.1-.65.1-.98s-.03-.65-.1-.98Z"/>
  <path class="cls-1" d="M81.97,15.53c-1.38,0-2.5,1.12-2.5,2.5v61.45h-18.54c-.05-.09-.11-.19-.17-.28-.18-.27-.39-.53-.62-.76-.23-.23-.49-.44-.76-.62-.27-.18-.56-.33-.86-.46-.3-.12-.62-.22-.94-.28-.64-.14-1.31-.14-1.95,0-.32.06-.64.16-.94.28-.3.13-.59.28-.86.46-.28.18-.53.39-.76.62s-.44.49-.62.76c-.18.27-.34.56-.46.87-.13.3-.22.61-.29.93-.06.32-.09.65-.09.98,0,1.32.53,2.6,1.46,3.53.23.24.48.44.76.63.27.18.56.33.86.46.3.12.62.22.94.28.32.07.65.1.97.1s.66-.03.98-.1c.32-.06.64-.16.94-.28.3-.13.59-.28.86-.46.27-.19.53-.39.76-.63.31-.3.55-.66.77-1.03h21.06c1.38,0,2.5-1.12,2.5-2.5V18.03c0-1.38-1.12-2.5-2.5-2.5Z"/>
  <g class="cls-2">
    <path class="cls-1" d="M48.86,39.69c.86,2.15,1.48,5.11,2.09,7.7.06.25.31.25.49.06,1.97-2.15,4.49-5.6,7.33-8.31,1.84-1.72,3.2-2.28,4.24-2.28s1.84,1.05,1.84,2.15-1.23,2.65-2.09,3.45c-.31.25-.68.43-.92.43-.31,0-.43-.43-.5-1.05-.12-.86-.55-1.29-.98-1.29-1.97,0-7.26,6.77-8.74,8.49-.13.19-.13.62-.06.86.37,1.6.92,4,1.35,5.29.98,3.08,1.72,3.88,2.71,3.88,1.6,0,2.89-1.97,3.57-3.08.37-.74.55-1.17.86-1.17s.25.25.25.86c0,2.77-3.51,7.33-6.03,7.33-1.29,0-2.89-1.42-3.69-3.45-.74-2.03-1.48-4.55-2.03-6.7-.06-.19-.31-.31-.49-.07-2.47,3.14-7.57,10.34-10.77,10.34-1.17,0-2.15-.8-2.15-2.4s1.47-3.76,2.34-4.43c.49-.37.92-.25.86.25-.19,2.03.8,2.53,1.48,2.53,1.17,0,4.12-2.96,8.12-7.88.19-.19.25-.49.19-.74-.62-2.71-1.23-5.42-1.91-7.39-.43-1.23-1.11-1.97-1.6-1.97-1.23,0-2.83,2.34-3.45,3.63-.31.62-.68.99-.86.99-.25,0-.37-.49-.19-1.42.8-3.44,4-7.26,6.22-7.26.92,0,1.84.86,2.52,2.65Z"/>
  </g>
</svg>