<?xml version="1.0" encoding="UTF-8"?>
<svg id="icons" xmlns="http://www.w3.org/2000/svg" viewBox="0 0 100 100">
  <defs>
    <style>
      .cls-1 {
        fill: #fff;
      }
    </style>
  </defs>
  <path d="M60.52,66.8h-17.03c-2.08,0-3.68,1.61-3.68,3.68s1.79,3.68,3.68,3.68h17.03c1.89,0,3.68-1.6,3.68-3.68s-1.6-3.68-3.68-3.68ZM33.48,57.16h37.03c1.89,0,3.68-1.6,3.68-3.68s-1.6-3.69-3.68-3.69h-37.03c-2.08,0-3.68,1.61-3.68,3.69s1.79,3.68,3.68,3.68ZM52,83.8h0c-2.08,0-3.68,1.61-3.68,3.68s1.79,3.68,3.68,3.68h0c1.89,0,3.68-1.6,3.68-3.68s-1.6-3.68-3.68-3.68ZM23.48,40.17h57.03c1.89,0,3.68-1.6,3.68-3.68s-1.6-3.69-3.68-3.69H23.48c-2.08,0-3.68,1.61-3.68,3.69s1.79,3.68,3.68,3.68ZM13.48,23.17h77.03c1.89,0,3.68-1.61,3.68-3.68s-1.6-3.69-3.68-3.69H13.48c-2.08,0-3.68,1.61-3.68,3.69s1.79,3.68,3.68,3.68Z"/>
  <path class="cls-1" d="M58.52,63.8h-17.03c-2.08,0-3.68,1.61-3.68,3.68s1.79,3.68,3.68,3.68h17.03c1.89,0,3.68-1.6,3.68-3.68s-1.6-3.68-3.68-3.68ZM31.48,54.16h37.03c1.89,0,3.68-1.6,3.68-3.68s-1.6-3.69-3.68-3.69H31.48c-2.08,0-3.68,1.61-3.68,3.69s1.79,3.68,3.68,3.68ZM50,80.8h0c-2.08,0-3.68,1.61-3.68,3.68s1.79,3.68,3.68,3.68h0c1.89,0,3.68-1.6,3.68-3.68s-1.6-3.68-3.68-3.68ZM21.48,37.17h57.03c1.89,0,3.68-1.6,3.68-3.68s-1.6-3.69-3.68-3.69H21.48c-2.08,0-3.68,1.61-3.68,3.69s1.79,3.68,3.68,3.68ZM11.48,20.17h77.03c1.89,0,3.68-1.61,3.68-3.68s-1.6-3.69-3.68-3.69H11.48c-2.08,0-3.68,1.61-3.68,3.69s1.79,3.68,3.68,3.68Z"/>
</svg>