<?xml version="1.0" encoding="UTF-8"?>
<svg id="icons" xmlns="http://www.w3.org/2000/svg" viewBox="0 0 100 100">
  <defs>
    <style>
      .cls-1 {
        fill: #fff;
      }

      .cls-1, .cls-2 {
        opacity: .5;
      }

      .cls-3 {
        fill: #ffa627;
      }
    </style>
  </defs>
  <path d="M78.27,93.12H23.97c-7.11,0-12.89-5.78-12.89-12.89V25.93c0-7.11,5.78-12.89,12.89-12.89h54.3c7.11,0,12.89,5.78,12.89,12.89v54.3c0,7.11-5.78,12.89-12.89,12.89ZM23.97,18.04c-4.35,0-7.89,3.54-7.89,7.89v54.3c0,4.35,3.54,7.89,7.89,7.89h54.3c4.35,0,7.89-3.54,7.89-7.89V25.93c0-4.35-3.54-7.89-7.89-7.89H23.97Z"/>
  <path class="cls-3" d="M76.27,90.12H21.97c-7.11,0-12.89-5.78-12.89-12.89V22.93c0-7.11,5.78-12.89,12.89-12.89h54.3c7.11,0,12.89,5.78,12.89,12.89v54.3c0,7.11-5.78,12.89-12.89,12.89ZM23.22,16.66c-4.15,0-7.53,3.38-7.53,7.53v51.79c0,4.15,3.38,7.53,7.53,7.53h51.79c4.15,0,7.53-3.38,7.53-7.53V24.18c0-4.15-3.38-7.53-7.53-7.53H23.22Z"/>
  <g>
    <g class="cls-2">
      <rect x="28.91" y="30.39" width="18.71" height="18.71" rx="5.6" ry="5.6"/>
    </g>
    <g class="cls-2">
      <rect x="55.09" y="30.39" width="18.71" height="18.71" rx="5.6" ry="5.6"/>
    </g>
    <g class="cls-2">
      <rect x="28.91" y="57.12" width="18.71" height="18.71" rx="5.6" ry="5.6"/>
    </g>
    <rect x="55.09" y="57.12" width="18.71" height="18.71" rx="5.6" ry="5.6"/>
  </g>
  <g>
    <rect class="cls-1" x="26.2" y="26.33" width="18.71" height="18.71" rx="5.6" ry="5.6"/>
    <rect class="cls-1" x="52.38" y="26.33" width="18.71" height="18.71" rx="5.6" ry="5.6"/>
    <rect class="cls-1" x="26.2" y="53.06" width="18.71" height="18.71" rx="5.6" ry="5.6"/>
    <rect class="cls-1" x="52.38" y="53.06" width="18.71" height="18.71" rx="5.6" ry="5.6"/>
  </g>
</svg>