<?xml version="1.0" encoding="UTF-8"?>
<svg id="icons" xmlns="http://www.w3.org/2000/svg" viewBox="0 0 100 100">
  <defs>
    <style>
      .cls-1 {
        fill: #fff;
      }
    </style>
  </defs>
  <path d="M48.01,73.32v-15.06l-12.1-23.65c-.21-.48-.41-1.3-.41-1.99,0-2.41,2.41-4.47,4.88-4.47,1.44,0,3.1.62,3.92,2.06l8.6,17.05,8.52-17.05c.83-1.44,2.48-2.06,3.99-2.06,2.47,0,4.88,2.06,4.88,4.47,0,.62-.27,1.37-.48,1.99l-12.04,23.65v15.06c0,2.41-2.13,4.54-4.88,4.54s-4.88-2.06-4.88-4.54Z"/>
  <path class="cls-1" d="M46.01,70.32v-15.06l-12.1-23.65c-.21-.48-.41-1.3-.41-1.99,0-2.41,2.41-4.47,4.88-4.47,1.44,0,3.1.62,3.92,2.06l8.6,17.05,8.52-17.05c.83-1.44,2.48-2.06,3.99-2.06,2.47,0,4.88,2.06,4.88,4.47,0,.62-.27,1.37-.48,1.99l-12.04,23.65v15.06c0,2.41-2.13,4.54-4.88,4.54s-4.88-2.06-4.88-4.54Z"/>
</svg>