<?xml version="1.0" encoding="UTF-8"?>
<svg id="icons" xmlns="http://www.w3.org/2000/svg" viewBox="0 0 100 100">
  <defs>
    <style>
      .cls-1 {
        fill: #fff;
      }

      .cls-2 {
        fill: #4d8dfc;
      }
    </style>
  </defs>
  <rect x="25.89" y="25.89" width="48.22" height="48.22"/>
  <rect class="cls-1" x="0" y="47.5" width="43.94" height="5"/>
  <rect class="cls-1" x="56.93" y="47.5" width="43.07" height="5"/>
  <path class="cls-2" d="M44.73,58.13c2.17,1.41,4.76,1.89,7.29,1.35,5.23-1.11,8.57-6.27,7.45-11.5-.54-2.53-2.03-4.7-4.21-6.11-1.59-1.03-3.4-1.56-5.25-1.56-.68,0-1.36.07-2.04.22-2.53.54-4.7,2.03-6.11,4.2-1.41,2.17-1.89,4.76-1.35,7.29s2.03,4.7,4.21,6.11Z"/>
</svg>