<?xml version="1.0" encoding="UTF-8"?>
<svg id="icons" xmlns="http://www.w3.org/2000/svg" viewBox="0 0 100 100">
  <defs>
    <style>
      .cls-1 {
        fill: #fff;
      }
    </style>
  </defs>
  <path d="M52.23,76.77c-12.42,0-22.52-10.1-22.52-22.52s10.1-22.52,22.52-22.52c5.33,0,10.21,1.87,14.07,4.98l-11.17,9.66,29.41,4.34-.06-29.73-10.33,8.93c-5.81-5.24-13.49-8.43-21.93-8.43-18.1,0-32.77,14.67-32.77,32.77s14.67,32.77,32.77,32.77c14.2,0,26.28-9.03,30.83-21.65l-10.47-1.55c-3.61,7.64-11.37,12.95-20.36,12.95Z"/>
  <path class="cls-1" d="M50.23,72.77c-12.42,0-22.52-10.1-22.52-22.52s10.1-22.52,22.52-22.52c5.33,0,10.21,1.87,14.07,4.98l-11.17,9.66,29.41,4.34-.06-29.73-10.33,8.93c-5.81-5.24-13.49-8.43-21.93-8.43-18.1,0-32.77,14.67-32.77,32.77s14.67,32.77,32.77,32.77c14.2,0,26.28-9.03,30.83-21.65l-10.47-1.55c-3.61,7.64-11.37,12.95-20.36,12.95Z"/>
</svg>