<?xml version="1.0" encoding="UTF-8"?>
<svg id="icons" xmlns="http://www.w3.org/2000/svg" viewBox="0 0 100 100">
  <defs>
    <style>
      .cls-1 {
        fill: #fff;
      }

      .cls-2 {
        fill: #3ec188;
      }
    </style>
  </defs>
  <path class="cls-1" d="M21.15,44.13l7.65-7.65c1.47-1.47,4.15-1.75,5.74-.16s1.53,4.15-.11,5.79l-7.65,7.65,8.14,8.14c1.58,1.58,1.48,4.1-.16,5.74s-4.32,1.58-5.74.16l-8.14-8.14-5.63-5.63,5.9-5.9Z"/>
  <path class="cls-2" d="M15.25,54.23v26.48c0,2.39-1.77,4.16-4,4.16s-3.93-2.01-3.93-4.16V19.43c0-2.08,1.7-4.16,3.93-4.16s4,1.85,4,4.16v34.8Z"/>
  <path class="cls-1" d="M52.31,54.04h-26.48c-2.39,0-4.16-1.77-4.16-4s2.01-3.93,4.16-3.93h50.95c2.08,0,4.16,1.7,4.16,3.93s-1.85,4-4.16,4h-24.47Z"/>
  <path class="cls-1" d="M80.03,55.96l-7.65,7.65c-1.47,1.47-4.15,1.75-5.74.16-1.58-1.58-1.53-4.15.11-5.79l7.65-7.65-8.14-8.14c-1.58-1.58-1.48-4.1.16-5.74,1.7-1.7,4.32-1.58,5.74-.16l8.14,8.14,5.63,5.63-5.9,5.9Z"/>
  <path class="cls-2" d="M85.93,45.87v-26.48c0-2.39,1.77-4.16,4-4.16s3.93,2.01,3.93,4.16v61.27c0,2.08-1.7,4.16-3.93,4.16s-4-1.85-4-4.16v-34.8Z"/>
</svg>