<?xml version="1.0" encoding="UTF-8"?>
<svg id="icons" xmlns="http://www.w3.org/2000/svg" viewBox="0 0 100 100">
  <defs>
    <style>
      .cls-1 {
        fill: #fff;
      }

      .cls-2 {
        fill: #4d8dfc;
      }

      .cls-3 {
        fill: #ed1e79;
      }

      .cls-4 {
        fill: #ffa627;
      }
    </style>
  </defs>
  <path d="M24.42,12.1c-1.6-1.04-3.43-1.58-5.3-1.58-.68,0-1.37.07-2.06.22-2.55.54-4.74,2.05-6.16,4.24-1.42,2.19-1.9,4.8-1.36,7.36.54,2.55,2.05,4.74,4.24,6.16,2.19,1.42,4.8,1.9,7.36,1.36,5.27-1.12,8.64-6.33,7.52-11.6-.54-2.55-2.05-4.74-4.24-6.16ZM80.43,28.5c2.19,1.42,4.8,1.9,7.36,1.36,5.27-1.12,8.64-6.33,7.52-11.6-.54-2.55-2.05-4.74-4.24-6.16-1.6-1.04-3.43-1.58-5.3-1.58-.68,0-1.37.07-2.06.22-2.55.54-4.74,2.05-6.16,4.24-1.42,2.19-1.9,4.8-1.36,7.36.54,2.55,2.05,4.74,4.24,6.16ZM24.42,77.97c-1.6-1.04-3.43-1.58-5.3-1.58-.68,0-1.37.07-2.06.22-2.55.54-4.74,2.05-6.16,4.24-1.42,2.19-1.9,4.8-1.36,7.36.54,2.55,2.05,4.74,4.24,6.16,2.19,1.42,4.8,1.9,7.36,1.36,5.27-1.12,8.64-6.33,7.52-11.6-.54-2.55-2.05-4.74-4.24-6.16ZM24.42,45.37c-1.6-1.04-3.43-1.58-5.3-1.58-.68,0-1.37.07-2.06.22-2.55.54-4.74,2.05-6.16,4.24-1.42,2.19-1.9,4.8-1.36,7.36.54,2.55,2.05,4.74,4.24,6.16,2.19,1.42,4.8,1.9,7.36,1.36,5.27-1.12,8.64-6.33,7.52-11.6-.54-2.55-2.05-4.74-4.24-6.16ZM57.58,12.1c-1.6-1.04-3.43-1.58-5.3-1.58-.68,0-1.37.07-2.06.22-2.55.54-4.74,2.05-6.16,4.24-1.42,2.19-1.9,4.8-1.36,7.36.54,2.55,2.05,4.74,4.24,6.16,2.19,1.42,4.8,1.9,7.36,1.36,5.27-1.12,8.64-6.33,7.52-11.6-.54-2.55-2.05-4.74-4.24-6.16ZM56.17,80.15c-1.18-.76-2.52-1.16-3.89-1.16-.5,0-1.01.05-1.51.16-1.88.4-3.48,1.51-4.53,3.12-1.04,1.61-1.4,3.53-1,5.41.4,1.88,1.51,3.48,3.12,4.53,1.61,1.04,3.53,1.4,5.41,1,3.87-.83,6.35-4.65,5.53-8.52-.4-1.88-1.51-3.48-3.12-4.53ZM59.03,43.12c-2.04-1.32-4.37-2.01-6.75-2.01-.87,0-1.75.09-2.62.28-3.25.69-6.04,2.61-7.85,5.4-1.81,2.79-2.42,6.12-1.73,9.37.69,3.25,2.61,6.04,5.4,7.85,2.79,1.81,6.11,2.42,9.37,1.73,6.71-1.43,11.01-8.06,9.58-14.77-.69-3.25-2.61-6.04-5.4-7.85ZM89.13,48.34c-1.02-.66-2.19-1.01-3.38-1.01-.44,0-.88.05-1.31.14-1.63.35-3.03,1.31-3.93,2.71-.91,1.4-1.21,3.07-.87,4.69.35,1.63,1.31,3.03,2.71,3.93,1.4.91,3.06,1.21,4.69.87,3.36-.72,5.52-4.04,4.8-7.4-.35-1.63-1.31-3.03-2.71-3.93ZM88.67,82.79c-.88-.57-1.89-.87-2.92-.87-.38,0-.76.04-1.14.12-1.41.3-2.61,1.13-3.4,2.34-.78,1.21-1.05,2.65-.75,4.06.3,1.41,1.13,2.61,2.34,3.4,1.21.78,2.65,1.05,4.06.75,2.91-.62,4.77-3.49,4.15-6.39-.3-1.41-1.13-2.61-2.34-3.4Z"/>
  <path class="cls-2" d="M11.19,24.62c2.19,1.42,4.8,1.9,7.36,1.36,5.27-1.12,8.64-6.33,7.52-11.6-.54-2.55-2.05-4.74-4.24-6.16-1.6-1.04-3.43-1.58-5.3-1.58-.68,0-1.37.07-2.06.22-2.55.54-4.74,2.05-6.16,4.24-1.42,2.19-1.9,4.8-1.36,7.36s2.05,4.74,4.24,6.16Z"/>
  <path class="cls-2" d="M77.83,24.62c2.19,1.42,4.8,1.9,7.36,1.36,5.27-1.12,8.64-6.33,7.52-11.6-.54-2.55-2.05-4.74-4.24-6.16-1.6-1.04-3.43-1.58-5.3-1.58-.68,0-1.37.07-2.06.22-2.55.54-4.74,2.05-6.16,4.24-1.42,2.19-1.9,4.8-1.36,7.36s2.05,4.74,4.24,6.16Z"/>
  <path class="cls-1" d="M11.19,90.49c2.19,1.42,4.8,1.9,7.36,1.36,5.27-1.12,8.64-6.33,7.52-11.6-.54-2.55-2.05-4.74-4.24-6.16-1.6-1.04-3.43-1.58-5.3-1.58-.68,0-1.37.07-2.06.22-2.55.54-4.74,2.05-6.16,4.24-1.42,2.19-1.9,4.8-1.36,7.36s2.05,4.74,4.24,6.16Z"/>
  <path class="cls-3" d="M11.19,57.88c2.19,1.42,4.8,1.9,7.36,1.36,5.27-1.12,8.64-6.33,7.52-11.6-.54-2.55-2.05-4.74-4.24-6.16-1.6-1.04-3.43-1.58-5.3-1.58-.68,0-1.37.07-2.06.22-2.55.54-4.74,2.05-6.16,4.24-1.42,2.19-1.9,4.8-1.36,7.36s2.05,4.74,4.24,6.16Z"/>
  <path class="cls-1" d="M44.35,24.62c2.19,1.42,4.8,1.9,7.36,1.36,5.27-1.12,8.64-6.33,7.52-11.6-.54-2.55-2.05-4.74-4.24-6.16-1.6-1.04-3.43-1.58-5.3-1.58-.68,0-1.37.07-2.06.22-2.55.54-4.74,2.05-6.16,4.24-1.42,2.19-1.9,4.8-1.36,7.36s2.05,4.74,4.24,6.16Z"/>
  <path class="cls-1" d="M45.68,88.45c1.64,1.07,3.6,1.43,5.52,1.02,3.96-.84,6.49-4.75,5.65-8.71-.41-1.92-1.54-3.56-3.19-4.63-1.2-.78-2.58-1.18-3.98-1.18-.51,0-1.03.05-1.55.16-1.92.41-3.56,1.54-4.63,3.18-1.07,1.64-1.43,3.61-1.02,5.52s1.54,3.56,3.19,4.63Z"/>
  <path class="cls-4" d="M42.94,60.06c2.77,1.8,6.07,2.41,9.31,1.72,6.67-1.42,10.94-8,9.51-14.67-.69-3.23-2.59-6-5.37-7.8-2.03-1.31-4.34-1.99-6.7-1.99-.87,0-1.74.09-2.61.28-3.23.69-6,2.59-7.8,5.37-1.8,2.77-2.41,6.08-1.72,9.31s2.59,6,5.37,7.8Z"/>
  <path class="cls-1" d="M79.55,55.23c1.48.96,3.25,1.29,4.98.92,3.57-.76,5.85-4.28,5.09-7.85-.37-1.73-1.39-3.21-2.87-4.17-1.08-.7-2.32-1.07-3.58-1.07-.46,0-.93.05-1.39.15-1.73.37-3.21,1.39-4.17,2.87-.96,1.48-1.29,3.25-.92,4.98s1.39,3.21,2.87,4.17Z"/>
  <path class="cls-3" d="M80.42,87.63c1.13.73,2.47.98,3.78.7,2.71-.58,4.44-3.25,3.86-5.96-.28-1.31-1.05-2.44-2.18-3.16-.82-.53-1.76-.81-2.72-.81-.35,0-.71.04-1.06.11-1.31.28-2.44,1.05-3.16,2.18-.73,1.13-.98,2.47-.7,3.78s1.05,2.44,2.18,3.16Z"/>
  <path class="cls-1" d="M13.78,20.63c1.13.73,2.47.98,3.78.7,2.71-.58,4.44-3.25,3.86-5.96-.28-1.31-1.05-2.44-2.18-3.16-.82-.53-1.76-.81-2.72-.81-.35,0-.71.04-1.06.11-1.31.28-2.44,1.05-3.16,2.18-.73,1.13-.98,2.47-.7,3.78s1.05,2.44,2.18,3.16Z"/>
</svg>