<?xml version="1.0" encoding="UTF-8"?>
<svg id="icons" xmlns="http://www.w3.org/2000/svg" viewBox="0 0 100 100">
  <defs>
    <style>
      .cls-1 {
        fill: #fff;
      }
    </style>
  </defs>
  <path d="M53.37,73.01c-5.9,5.89-15.49,5.89-21.38,0-5.89-5.9-5.89-15.49,0-21.38l12.56-12.56-7.07-7.07-12.56,12.56c-9.79,9.79-9.79,25.73,0,35.52,4.9,4.9,11.33,7.34,17.76,7.34s12.86-2.45,17.76-7.35l12.56-12.56-7.07-7.07-12.56,12.56ZM58.52,25.1l-7.07-7.07-7.52,7.52,7.07,7.07,7.52-7.52ZM79.9,46.48l-7.52,7.52,7.07,7.07,7.52-7.52-7.07-7.07Z"/>
  <path class="cls-1" d="M51.37,70.01c-5.9,5.89-15.49,5.89-21.38,0-5.89-5.9-5.89-15.49,0-21.38l12.56-12.56-7.07-7.07-12.56,12.56c-9.79,9.79-9.79,25.73,0,35.52,4.9,4.9,11.33,7.34,17.76,7.34s12.86-2.45,17.76-7.35l12.56-12.56-7.07-7.07-12.56,12.56ZM56.52,22.1l-7.07-7.07-7.52,7.52,7.07,7.07,7.52-7.52ZM77.9,43.48l-7.52,7.52,7.07,7.07,7.52-7.52-7.07-7.07Z"/>
</svg>