<?xml version="1.0" encoding="UTF-8"?>
<svg id="icons" xmlns="http://www.w3.org/2000/svg" viewBox="0 0 100 100">
  <defs>
    <style>
      .cls-1 {
        fill: #3ec188;
      }
    </style>
  </defs>
  <path d="M45.99,81.9c-1.39,0-2.72-.58-3.67-1.61l-22.06-23.9c-1.87-2.03-1.75-5.19.28-7.07,2.03-1.87,5.19-1.75,7.07.28l17.83,19.31,28.29-40.89c1.57-2.27,4.68-2.84,6.96-1.27,2.27,1.57,2.84,4.69,1.27,6.96l-31.84,46.02c-.86,1.25-2.25,2.04-3.76,2.14-.12,0-.23.01-.35.01Z"/>
  <path class="cls-1" d="M43.99,78.9c-1.39,0-2.72-.58-3.67-1.61l-22.06-23.9c-1.87-2.03-1.75-5.19.28-7.07,2.03-1.87,5.19-1.75,7.07.28l17.83,19.31,28.29-40.89c1.57-2.27,4.68-2.84,6.96-1.27,2.27,1.57,2.84,4.69,1.27,6.96l-31.84,46.02c-.86,1.25-2.25,2.04-3.76,2.14-.12,0-.23.01-.35.01Z"/>
</svg>