<?xml version="1.0" encoding="UTF-8"?>
<svg id="icons" xmlns="http://www.w3.org/2000/svg" viewBox="0 0 100 100">
  <defs>
    <style>
      .cls-1 {
        fill: #fff;
      }

      .cls-2 {
        stroke: #ed1e79;
      }

      .cls-2, .cls-3 {
        fill: none;
        stroke-linecap: round;
        stroke-linejoin: round;
        stroke-width: 3px;
      }

      .cls-3 {
        stroke: #4d8dfc;
      }

      .cls-4 {
        fill: #3ec188;
      }

      .cls-5 {
        fill: #999;
      }
    </style>
  </defs>
  <path class="cls-5" d="M44.72,6.76h8.99c3.7,0,6.71,3.01,6.71,6.71v8.99c0,3.7-3.01,6.71-6.71,6.71h-8.99c-3.7,0-6.71-3.01-6.71-6.71v-8.99c0-3.7,3.01-6.71,6.71-6.71Z"/>
  <rect class="cls-5" x="69.36" y="6.76" width="22.41" height="22.41" rx="6.71" ry="6.71"/>
  <path class="cls-1" d="M13.36,6.76h8.99c3.7,0,6.71,3.01,6.71,6.71v8.99c0,3.7-3.01,6.71-6.71,6.71h-8.99c-3.7,0-6.71-3.01-6.71-6.71v-8.99c0-3.7,3.01-6.71,6.71-6.71Z"/>
  <path class="cls-5" d="M13.36,70.79h8.99c3.7,0,6.71,3.01,6.71,6.71v8.99c0,3.7-3.01,6.71-6.71,6.71h-8.99c-3.7,0-6.71-3.01-6.71-6.71v-8.99c0-3.7,3.01-6.71,6.71-6.71Z"/>
  <path class="cls-1" d="M13.36,38.77h8.99c3.7,0,6.71,3.01,6.71,6.71v8.99c0,3.7-3.01,6.71-6.71,6.71h-8.99c-3.7,0-6.71-3.01-6.71-6.71v-8.99c0-3.7,3.01-6.71,6.71-6.71Z"/>
  <path class="cls-4" d="M92.81,59.89c-1.54-7.24-5.81-13.44-12.02-17.46-4.5-2.92-9.7-4.47-15.01-4.47-1.94,0-3.91.21-5.83.62-7.24,1.54-13.44,5.81-17.46,12.02-4.03,6.21-5.39,13.61-3.85,20.85,1.55,7.24,5.81,13.44,12.02,17.46,4.54,2.94,9.72,4.46,15.01,4.46,1.94,0,3.9-.2,5.84-.62,7.22-1.54,13.42-5.81,17.45-12.03,4.03-6.22,5.4-13.62,3.86-20.84ZM80.75,69.68h-10.82v11.52c0,2.24-1.85,3.94-4.17,3.94s-4.17-1.93-4.17-3.94v-11.52h-10.82c-2.4,0-4.18-1.78-4.18-4.02s2.01-3.94,4.18-3.94h10.82v-11.52c0-2.09,1.77-4.02,4.17-4.02s4.17,1.78,4.17,4.02v11.52h10.82c2.08,0,4.17,1.7,4.17,3.94s-1.86,4.02-4.17,4.02Z"/>
  <g>
    <line class="cls-3" x1="44.71" y1="23.97" x2="53.71" y2="23.97"/>
    <line class="cls-2" x1="76.07" y1="23.97" x2="85.06" y2="23.97"/>
    <line class="cls-2" x1="13.36" y1="23.97" x2="22.35" y2="23.97"/>
    <line class="cls-3" x1="13.36" y1="88" x2="22.35" y2="88"/>
    <line class="cls-2" x1="13.36" y1="55.99" x2="22.35" y2="55.99"/>
  </g>
</svg>