<?xml version="1.0" encoding="UTF-8"?>
<svg id="icons" xmlns="http://www.w3.org/2000/svg" viewBox="0 0 100 100">
  <defs>
    <style>
      .cls-1 {
        fill: #fff;
      }
    </style>
  </defs>
  <path d="M36.96,84.25c0,.97-.2,1.76-.61,2.41-.4.64-.91,1.16-1.52,1.56-.61.4-1.31.69-2.09.84-.77.16-1.53.24-2.29.24h-8.18c-1.44,0-2.72-.51-3.81-1.52-1.1-1.02-1.65-2.19-1.65-3.53V21.66c0-1.87.66-3.17,1.97-3.89,1.31-.72,2.85-1.08,4.62-1.08h8.18c1.34,0,2.57.48,3.7,1.44,1.12.96,1.68,2.12,1.68,3.45,0,.97-.19,1.77-.56,2.41-.38.64-.88,1.16-1.49,1.56-.61.4-1.31.69-2.08.84-.78.16-1.54.24-2.29.24h-2.57v52.64h2.57c1.71,0,3.21.37,4.49,1.08,1.28.72,1.93,2.02,1.93,3.89Z"/>
  <path d="M85.62,87.83c-1.04.99-2.34,1.48-3.89,1.48h-8.18c-.8,0-1.59-.08-2.37-.24-.78-.16-1.47-.44-2.08-.84-.62-.4-1.12-.92-1.53-1.56-.4-.65-.6-1.44-.6-2.41s.19-1.76.56-2.41c.37-.64.87-1.15,1.48-1.52s1.31-.64,2.09-.8c.78-.16,1.56-.24,2.36-.24h2.57V26.64h-2.57c-.74,0-1.51-.08-2.29-.24-.78-.16-1.47-.42-2.08-.8-.62-.38-1.12-.89-1.53-1.53-.4-.64-.6-1.47-.6-2.49,0-.96.2-1.75.6-2.36.4-.61.91-1.11,1.53-1.49.61-.37,1.31-.64,2.08-.8.78-.16,1.57-.24,2.37-.24h8.18c.69,0,1.36.14,2,.44.65.29,1.21.67,1.72,1.12.51.46.93.98,1.25,1.57s.48,1.2.48,1.84v62.59c0,1.39-.52,2.58-1.57,3.57Z"/>
  <path class="cls-1" d="M34.96,81.25c0,.97-.2,1.76-.61,2.41-.4.64-.91,1.16-1.52,1.56-.61.4-1.31.69-2.09.84-.77.16-1.53.24-2.29.24h-8.18c-1.44,0-2.72-.51-3.81-1.52-1.1-1.02-1.65-2.19-1.65-3.53V18.66c0-1.87.66-3.17,1.97-3.89,1.31-.72,2.85-1.08,4.62-1.08h8.18c1.34,0,2.57.48,3.7,1.44,1.12.96,1.68,2.12,1.68,3.45,0,.97-.19,1.77-.56,2.41-.38.64-.88,1.16-1.49,1.56-.61.4-1.31.69-2.08.84-.78.16-1.54.24-2.29.24h-2.57v52.64h2.57c1.71,0,3.21.37,4.49,1.08,1.28.72,1.93,2.02,1.93,3.89Z"/>
  <path class="cls-1" d="M83.62,84.83c-1.04.99-2.34,1.48-3.89,1.48h-8.18c-.8,0-1.59-.08-2.37-.24-.78-.16-1.47-.44-2.08-.84-.62-.4-1.12-.92-1.53-1.56-.4-.65-.6-1.44-.6-2.41s.19-1.76.56-2.41c.37-.64.87-1.15,1.48-1.52s1.31-.64,2.09-.8c.78-.16,1.56-.24,2.36-.24h2.57V23.64h-2.57c-.74,0-1.51-.08-2.29-.24-.78-.16-1.47-.42-2.08-.8-.62-.38-1.12-.89-1.53-1.53-.4-.64-.6-1.47-.6-2.49,0-.96.2-1.75.6-2.36.4-.61.91-1.11,1.53-1.49.61-.37,1.31-.64,2.08-.8.78-.16,1.57-.24,2.37-.24h8.18c.69,0,1.36.14,2,.44.65.29,1.21.67,1.72,1.12.51.46.93.98,1.25,1.57s.48,1.2.48,1.84v62.59c0,1.39-.52,2.58-1.57,3.57Z"/>
</svg>