<?xml version="1.0" encoding="UTF-8"?>
<svg id="icons" xmlns="http://www.w3.org/2000/svg" viewBox="0 0 200 100">
  <defs>
    <style>
      .cls-1 {
        fill: #fff;
      }

      .cls-2 {
        fill: #cb2600;
      }

      .cls-3 {
        fill: #2c80ed;
      }

      .cls-4 {
        fill: #67a900;
      }
    </style>
  </defs>
  <g>
    <polygon points="78.84 19.86 50.09 38.39 50.09 67.77 78.84 86.3 107.59 67.77 107.59 38.39 78.84 19.86"/>
    <g>
      <polygon class="cls-2" points="76.84 83.3 48.09 64.77 48.09 35.39 76.84 53.92 76.84 83.3"/>
      <polygon class="cls-4" points="76.84 83.3 105.59 64.77 105.59 35.39 76.84 53.92 76.84 83.3"/>
      <polygon class="cls-3" points="76.84 53.92 105.59 35.39 76.84 16.86 48.09 35.39 76.84 53.92"/>
    </g>
  </g>
  <g>
    <path d="M119.6,76.85c-12.42,0-22.52-10.1-22.52-22.52s10.1-22.52,22.52-22.52c5.33,0,10.21,1.87,14.07,4.98l-11.17,9.66,29.41,4.34-.06-29.73-10.33,8.93c-5.81-5.24-13.49-8.43-21.93-8.43-18.1,0-32.77,14.67-32.77,32.77s14.67,32.77,32.77,32.77c14.2,0,26.28-9.03,30.83-21.65l-10.47-1.55c-3.61,7.64-11.37,12.95-20.36,12.95Z"/>
    <path class="cls-1" d="M117.6,72.85c-12.42,0-22.52-10.1-22.52-22.52s10.1-22.52,22.52-22.52c5.33,0,10.21,1.87,14.07,4.98l-11.17,9.66,29.41,4.34-.06-29.73-10.33,8.93c-5.81-5.24-13.49-8.43-21.93-8.43-18.1,0-32.77,14.67-32.77,32.77s14.67,32.77,32.77,32.77c14.2,0,26.28-9.03,30.83-21.65l-10.47-1.55c-3.61,7.64-11.37,12.95-20.36,12.95Z"/>
  </g>
</svg>