<?xml version="1.0" encoding="UTF-8"?>
<svg id="icons" xmlns="http://www.w3.org/2000/svg" viewBox="0 0 100 100">
  <defs>
    <style>
      .cls-1 {
        fill: #ffa627;
      }
    </style>
  </defs>
  <path d="M86.77,75.19l-28.38-49.15c-1.77-3.07-4.11-4.61-6.45-4.61s-4.68,1.53-6.45,4.61l-28.38,49.15c-3.55,6.14-.64,11.17,6.45,11.17h56.75c7.09,0,10-5.03,6.45-11.17Z"/>
  <path class="cls-1" d="M84.88,71.39l-28.38-49.15c-1.77-3.07-4.11-4.61-6.45-4.61s-4.68,1.53-6.45,4.61l-28.38,49.15c-3.55,6.14-.64,11.17,6.45,11.17h56.75c7.09,0,10-5.03,6.45-11.17ZM45.28,38.28h9.55v22.21h-9.55v-22.21ZM50.05,74.9c-2.89,0-5.23-2.34-5.23-5.23s2.34-5.23,5.23-5.23,5.23,2.34,5.23,5.23-2.34,5.23-5.23,5.23Z"/>
</svg>