<?xml version="1.0" encoding="UTF-8"?>
<svg id="icons" xmlns="http://www.w3.org/2000/svg" viewBox="0 0 100 100">
  <defs>
    <style>
      .cls-1 {
        fill: #fff;
      }

      .cls-2 {
        fill: #ffa627;
      }
    </style>
  </defs>
  <path d="M50.9,88.57c-20.28,0-32.67-14.47-32.67-35.73S30.07,17.55,51.78,17.55s33.98,15.45,33.98,34.41c0,10.3-3.51,17.87-13.26,17.87-4.82,0-8-1.75-10.09-4.71-4.05,4.28-7.89,5.81-12.06,5.81-9.32,0-14.57-7.78-14.57-18.09s5.7-18.09,16.44-18.09,13.92,7.23,14.9,17.54c.33,3.94.99,9.65,5.37,9.65,3.61,0,4.71-3.73,4.71-9.21,0-15.57-8.66-27.29-25.32-27.29s-25.1,11.29-25.1,27.62,8.76,27.62,25.65,27.62c7.78,0,11.07-2.41,13.81-3.18,1.97-.55,4.5-.44,5.27,2.41.77,3.07-1.65,4.61-4.17,5.7-3.84,1.65-10.3,2.96-16.44,2.96ZM51.78,42.65c-5.26,0-7.45,3.94-7.45,10.52s2.08,10.08,6.79,10.08c2.96,0,5.81-1.42,8.55-4.05-.54-2.2-.87-4.61-1.09-7.13-.33-3.94-.66-9.42-6.8-9.42Z"/>
  <path class="cls-1" d="M49.79,14.56c-21.71,0-33.54,14.58-33.54,35.29,0,15.02,6.19,26.64,16.96,32.17l3.41-7.68c-7.81-4.5-11.82-13.23-11.82-24.27,0-16.33,8.76-27.62,25.1-27.62s25.32,11.73,25.32,27.29c0,5.48-1.1,9.21-4.71,9.21-4.38,0-5.04-5.7-5.37-9.65-.98-10.3-4.16-17.54-14.9-17.54s-16.44,7.35-16.44,18.09,5.26,18.09,14.57,18.09c4.17,0,8.01-1.54,12.06-5.81,2.09,2.96,5.27,4.71,10.09,4.71,9.75,0,13.26-7.56,13.26-17.87,0-18.96-11.73-34.41-33.98-34.41ZM49.13,60.27c-4.71,0-6.79-3.73-6.79-10.08s2.2-10.52,7.45-10.52c6.14,0,6.47,5.48,6.8,9.42.21,2.52.54,4.93,1.09,7.13-2.74,2.63-5.59,4.05-8.55,4.05Z"/>
  <path class="cls-2" d="M64.25,74.52c-2.74.76-6.02,3.18-13.81,3.18-3.78,0-7.15-.57-10.11-1.63l-3.37,7.59c3.59,1.26,7.58,1.94,11.94,1.94,6.14,0,12.6-1.31,16.44-2.96,2.52-1.09,4.94-2.63,4.17-5.7-.77-2.85-3.29-2.96-5.27-2.41Z"/>
</svg>