<?xml version="1.0" encoding="UTF-8"?>
<svg id="icons" xmlns="http://www.w3.org/2000/svg" viewBox="0 0 100 100">
  <defs>
    <style>
      .cls-1 {
        fill: #3ec188;
      }
    </style>
  </defs>
  <path class="cls-1" d="M85.85,42.59c-2-9.4-7.55-17.45-15.61-22.67-5.85-3.79-12.59-5.8-19.49-5.8-2.52,0-5.07.27-7.57.81-9.4,2-17.45,7.54-22.68,15.61-5.23,8.06-7,17.68-5,27.07,2.01,9.4,7.55,17.45,15.61,22.67,5.89,3.82,12.62,5.8,19.49,5.8,2.52,0,5.06-.27,7.58-.8,9.38-2,17.43-7.55,22.66-15.62,5.23-8.07,7.01-17.68,5.01-27.06ZM70.2,55.31h-14.05v14.95c0,2.91-2.4,5.12-5.42,5.12s-5.42-2.51-5.42-5.12v-14.95h-14.05c-3.11,0-5.43-2.31-5.43-5.22s2.61-5.12,5.43-5.12h14.05v-14.95c0-2.71,2.3-5.22,5.42-5.22s5.42,2.31,5.42,5.22v14.95h14.05c2.7,0,5.42,2.21,5.42,5.12s-2.41,5.22-5.42,5.22Z"/>
</svg>