<?xml version="1.0" encoding="UTF-8"?>
<svg id="icons" xmlns="http://www.w3.org/2000/svg" viewBox="0 0 100 100">
    <defs>
        <style>
            .cls-1 {
            fill: #fff;
            }
        </style>
    </defs>
    <path
        d="M36.96,84.25c0,.97-.2,1.76-.61,2.41-.4.64-.91,1.16-1.52,1.56-.61.4-1.31.69-2.09.84-.77.16-1.53.24-2.29.24h-8.18c-1.44,0-2.72-.51-3.81-1.52-1.1-1.02-1.65-2.19-1.65-3.53V21.66c0-1.87.66-3.17,1.97-3.89,1.31-.72,2.85-1.08,4.62-1.08h8.18c1.34,0,2.57.48,3.7,1.44,1.12.96,1.68,2.12,1.68,3.45,0,.97-.19,1.77-.56,2.41-.38.64-.88,1.16-1.49,1.56-.61.4-1.31.69-2.08.84-.78.16-1.54.24-2.29.24h-2.57v52.64h2.57c1.71,0,3.21.37,4.49,1.08,1.28.72,1.93,2.02,1.93,3.89Z"/>
    <path
        d="M83.65,64.51c1.07.48,1.93,1.15,2.57,2,.65.86.97,1.74.97,2.65,0,1.44-.5,2.68-1.49,3.69-.99,1.02-2.31,1.53-3.97,1.53-.16,0-.52-.04-1.08-.12-.56-.08-1.06-.23-1.48-.44l-19.51-15.45c-1.12-.59-2.08-1.23-2.89-1.93-.8-.7-1.2-1.82-1.2-3.37s.39-2.74,1.16-3.42c.78-.67,1.72-1.29,2.85-1.88l19.59-15.29c.37-.21.83-.36,1.36-.44.54-.08.93-.12,1.2-.12,1.66,0,2.98.52,3.97,1.57.99,1.04,1.49,2.26,1.49,3.65,0,.91-.33,1.81-1.01,2.69-.67.88-1.51,1.56-2.53,2.04l-14.05,11.19,14.05,11.43Z"/>
    <path class="cls-1"
          d="M34.96,81.25c0,.97-.2,1.76-.61,2.41-.4.64-.91,1.16-1.52,1.56-.61.4-1.31.69-2.09.84-.77.16-1.53.24-2.29.24h-8.18c-1.44,0-2.72-.51-3.81-1.52-1.1-1.02-1.65-2.19-1.65-3.53V18.66c0-1.87.66-3.17,1.97-3.89,1.31-.72,2.85-1.08,4.62-1.08h8.18c1.34,0,2.57.48,3.7,1.44,1.12.96,1.68,2.12,1.68,3.45,0,.97-.19,1.77-.56,2.41-.38.64-.88,1.16-1.49,1.56-.61.4-1.31.69-2.08.84-.78.16-1.54.24-2.29.24h-2.57v52.64h2.57c1.71,0,3.21.37,4.49,1.08,1.28.72,1.93,2.02,1.93,3.89Z"/>
    <path class="cls-1"
          d="M81.65,61.51c1.07.48,1.93,1.15,2.57,2,.65.86.97,1.74.97,2.65,0,1.44-.5,2.68-1.49,3.69-.99,1.02-2.31,1.53-3.97,1.53-.16,0-.52-.04-1.08-.12-.56-.08-1.06-.23-1.48-.44l-19.51-15.45c-1.12-.59-2.08-1.23-2.89-1.93-.8-.7-1.2-1.82-1.2-3.37s.39-2.74,1.16-3.42c.78-.67,1.72-1.29,2.85-1.88l19.59-15.29c.37-.21.83-.36,1.36-.44.54-.08.93-.12,1.2-.12,1.66,0,2.98.52,3.97,1.57.99,1.04,1.49,2.26,1.49,3.65,0,.91-.33,1.81-1.01,2.69-.67.88-1.51,1.56-2.53,2.04l-14.05,11.19,14.05,11.43Z"/>
</svg>