<?xml version="1.0" encoding="UTF-8"?>
<svg id="icons" xmlns="http://www.w3.org/2000/svg" viewBox="0 0 100 100">
  <defs>
    <style>
      .cls-1 {
        fill: #fff;
      }

      .cls-2 {
        fill: #ffa627;
      }
    </style>
  </defs>
  <path d="M47.81,20.88h-22.08c-4.04,0-7.32,3.28-7.32,7.32v22.08c0,4.04,3.28,7.32,7.32,7.32h22.08c4.04,0,7.32-3.28,7.32-7.32v-22.08c0-4.04-3.28-7.32-7.32-7.32ZM78.57,36.34h-13.92c-2,0-3.63,1.63-3.63,3.63v13.92c0,2,1.63,3.63,3.63,3.63h13.92c2,0,3.63-1.63,3.63-3.63v-13.92c0-2-1.62-3.63-3.63-3.63ZM51.5,63.93h-13.92c-2,0-3.63,1.63-3.63,3.63v13.92c0,2,1.62,3.63,3.63,3.63h13.92c2,0,3.63-1.63,3.63-3.63v-13.92c0-2.01-1.63-3.63-3.63-3.63ZM70.31,63.93h-5.66c-2,0-3.63,1.63-3.63,3.63v5.66c0,2,1.63,3.63,3.63,3.63h5.66c2,0,3.63-1.63,3.63-3.63v-5.66c0-2.01-1.62-3.63-3.63-3.63Z"/>
  <path class="cls-1" d="M45.81,17.88h-22.08c-4.04,0-7.32,3.28-7.32,7.32v22.08c0,4.04,3.28,7.32,7.32,7.32h22.08c4.04,0,7.32-3.28,7.32-7.32v-22.08c0-4.04-3.28-7.32-7.32-7.32ZM49.5,60.93h-13.92c-2,0-3.63,1.63-3.63,3.63v13.92c0,2,1.62,3.63,3.63,3.63h13.92c2,0,3.63-1.63,3.63-3.63v-13.92c0-2.01-1.63-3.63-3.63-3.63ZM68.31,60.93h-5.66c-2,0-3.63,1.63-3.63,3.63v5.66c0,2,1.63,3.63,3.63,3.63h5.66c2,0,3.63-1.63,3.63-3.63v-5.66c0-2.01-1.62-3.63-3.63-3.63Z"/>
  <rect class="cls-2" x="59.02" y="33.34" width="21.18" height="21.18" rx="3.63" ry="3.63"/>
  <rect class="cls-2" x="36.77" y="65.76" width="11.53" height="11.53" rx="1.98" ry="1.98"/>
</svg>