<?xml version="1.0" encoding="UTF-8"?>
<svg id="icons" xmlns="http://www.w3.org/2000/svg" viewBox="0 0 200 100">
  <defs>
    <style>
      .cls-1 {
        opacity: .25;
      }

      .cls-2 {
        fill: #fff;
        opacity: .5;
      }

      .cls-3 {
        fill: #ccc;
      }

      .cls-4 {
        fill: gray;
      }

      .cls-5 {
        fill: #e6e6e6;
      }
    </style>
  </defs>
  <path d="M154.44,21.4c-13.94,0-25.24,11.3-25.24,25.24,0,3.49.71,6.81,1.98,9.83.48,1.13,1.04,2.22,1.67,3.26,4.43,7.29,12.44,12.15,21.59,12.15,13.94,0,25.24-11.3,25.24-25.24s-11.3-25.24-25.24-25.24ZM49.56,18.13c-13.94,0-25.24,11.3-25.24,25.24s11.3,25.24,25.24,25.24c0,0,0,0,0,0,13.94,0,25.24-11.3,25.24-25.24s-11.3-25.24-25.24-25.24ZM101.32,40.3c-13.94,0-25.24,11.3-25.24,25.24,0,3.92.89,7.63,2.49,10.94.53,1.1,1.14,2.16,1.82,3.17,4.54,6.71,12.22,11.13,20.93,11.13,13.94,0,25.24-11.3,25.24-25.24s-11.3-25.24-25.24-25.24Z"/>
  <g>
    <circle class="cls-4" cx="152.44" cy="43.64" r="25.24"/>
    <path class="cls-1" d="M127.76,38.34c-.37,1.71-.57,3.48-.57,5.3,0,13.94,11.3,25.24,25.24,25.24,1.82,0,3.59-.2,5.3-.57-15.26-2.67-27.3-14.71-29.97-29.97Z"/>
    <path class="cls-1" d="M154.42,40.62c3.83.7,6.4,3.39,6.4,7.36s-2.76,8.8-9.16,8.8c-1.73,0-7.62-.48-7.62-3.53,0-1.21,1.07-2.28,2.43-2.28,1.55,0,2.5,1.36,5,1.36,3.2,0,4.23-2.21,4.23-4.12,0-2.43-1.62-3.39-4.2-3.39-.96,0-.96.4-1.88.4-1.33,0-2.39-1.07-2.39-2.43,0-.37.07-.66.26-.88l5.48-6.66h-5.92c-1.44,0-2.54-1.03-2.54-2.32s1.1-2.43,2.54-2.43h10.27c1.58,0,2.69,1.07,2.69,2.5,0,.63-.22,1.21-.59,1.66l-5.01,5.96Z"/>
    <ellipse class="cls-2" cx="163.44" cy="31.39" rx="5.53" ry="10.71" transform="translate(41.58 144.73) rotate(-53.8)"/>
  </g>
  <g>
    <circle class="cls-5" cx="47.56" cy="40.37" r="25.24"/>
    <path class="cls-1" d="M22.89,35.07c-.37,1.71-.57,3.48-.57,5.3,0,13.94,11.3,25.24,25.24,25.24,1.82,0,3.59-.2,5.3-.57-15.26-2.67-27.3-14.71-29.97-29.97Z"/>
    <path class="cls-1" d="M45.25,33.43l-2.91,1.77c-.7.44-1.33.77-2.17.77-1.1,0-2.36-.55-2.36-2.13,0-.96.44-1.66,1.14-2.06l7.29-4.27c.52-.29.92-.4,1.44-.4,1.55,0,2.72,1.07,2.72,2.47v21.75c0,1.25-1.18,2.36-2.58,2.36s-2.58-1.1-2.58-2.36v-17.89Z"/>
    <ellipse class="cls-2" cx="58.57" cy="28.12" rx="5.53" ry="10.71" transform="translate(1.29 58.77) rotate(-53.8)"/>
  </g>
  <g>
    <circle class="cls-3" cx="99.32" cy="62.54" r="25.24"/>
    <path class="cls-1" d="M74.65,57.25c-.37,1.71-.57,3.48-.57,5.3,0,13.94,11.3,25.24,25.24,25.24,1.82,0,3.59-.2,5.3-.57-15.26-2.67-27.3-14.71-29.97-29.97Z"/>
    <path class="cls-1" d="M105.41,75.85h-12.11c-1.55,0-2.61-1.07-2.61-2.43,0-.52.04-1.18.29-1.73,1.47-3.24,4.16-5.59,6.77-7.95,2.02-1.84,4.97-3.94,4.97-6.66,0-1.88-1.18-3.35-3.46-3.35-1.25,0-2.21.22-3.09.59-.81.33-1.55.99-2.61.99-1.25,0-2.5-.88-2.5-2.24,0-2.69,5.26-3.83,8.24-3.83,5.37,0,8.5,3.31,8.5,7.47,0,3.13-1.21,5.19-2.91,6.96-2.47,2.58-5.7,4.86-7.69,7.58h8.21c1.44,0,2.54.99,2.54,2.28s-1.1,2.32-2.54,2.32Z"/>
    <ellipse class="cls-2" cx="110.32" cy="50.29" rx="5.53" ry="10.71" transform="translate(4.58 109.61) rotate(-53.8)"/>
  </g>
</svg>