<?xml version="1.0" encoding="UTF-8"?>
<svg id="icons" xmlns="http://www.w3.org/2000/svg" viewBox="0 0 100 100">
    <defs>
        <style>
            .cls-1 {
            fill: #fff;
            }

            .cls-2 {
            opacity: .25;
            }

            .cls-3 {
            fill: #4d8dfc;
            }

            .cls-4 {
            opacity: .5;
            }
        </style>
    </defs>
    <g class="cls-2">
        <g>
            <path class="cls-1"
                  d="M57.92,42.59c-7.89,7.76-9.16,20.51-3.03,29.73.85,1.2,1.96,1.7,3.04,1.7,2.6,0,4.99-2.9,3.04-5.85-1.42-1.97-2.4-4.25-2.86-6.66-1.17-5.8,1.05-12.11,5.53-15.98,2.6-2.36,5.86-3.52,9.1-3.52,3.69,0,7.37,1.5,10.06,4.46,3.01,3.18,3.89,7.99,2,12-1.05,2.23-2.86,4.18-5.12,5.2-1.05.47-2.2.7-3.36.7-2.54,0-5.11-1.11-6.73-3.12-3.53-3.84-1.13-10.91,4.25-11.16.08,0,.15,0,.23,0,3.8,0,6.9,4.28,4.3,7.6-.72,1-1.84,1.5-2.95,1.5-1.28,0-2.54-.66-3.15-1.97-.5-1.12-.15-2.55.83-3.31.39-.34.89-.5,1.39-.5.71,0,1.42.32,1.84.93.08.12.22.18.35.18.08,0,.16-.02.23-.07.2-.13.26-.4.13-.6-.47-.72-1.25-1.24-2.11-1.38-.19-.04-.38-.05-.56-.05-1.56,0-2.97,1.22-3.39,2.72-.83,2.62,1.45,5.29,4.05,5.54.21.03.41.04.61.04,3.34,0,5.96-3.49,5.47-6.76-.19-1.73-1.2-3.29-2.51-4.4-1.5-1.21-3.18-1.75-4.84-1.75-3.32,0-6.53,2.17-7.94,5.56-2.19,5.02.51,10.68,5.19,13.13,1.73.95,3.69,1.41,5.65,1.41,2.78,0,5.58-.93,7.75-2.71,5.21-3.96,7.15-11.37,4.7-17.44-2.77-6.78-9.87-11.22-17.14-11.22-.5,0-1,.02-1.5.06-2.59.22-5.17.97-7.46,2.19-1.88,1.02-3.58,2.36-5.13,3.82Z"/>
            <path
                d="M52.68,73.79l.02.03.02.03c1.29,1.82,3.14,2.82,5.21,2.82h0c2.34,0,4.57-1.34,5.69-3.42,1.12-2.08.97-4.47-.42-6.57l-.03-.05-.03-.05c-1.19-1.65-2.02-3.58-2.4-5.59-.97-4.83.9-10.22,4.66-13.47l.02-.02.02-.02c2.01-1.82,4.61-2.83,7.31-2.83,1.92,0,3.79.51,5.44,1.46-1.38-.66-2.86-1-4.4-1-4.42,0-8.6,2.89-10.39,7.18-2.61,6.03.19,13.28,6.39,16.52,2.07,1.13,4.46,1.73,6.91,1.73,3.47,0,6.81-1.17,9.41-3.29,6.11-4.68,8.43-13.3,5.52-20.53-3.1-7.59-11.16-12.89-19.61-12.89-.57,0-1.15.02-1.72.07-2.98.26-5.92,1.12-8.49,2.5-1.92,1.04-3.78,2.42-5.7,4.23l-.02.02-.02.02c-8.75,8.61-10.2,22.84-3.38,33.11ZM72.01,36.52c7.26,0,14.37,4.43,17.14,11.22,2.45,6.07.51,13.48-4.7,17.44-2.17,1.79-4.97,2.71-7.75,2.71-1.97,0-3.92-.46-5.65-1.41-4.68-2.45-7.38-8.11-5.19-13.13,1.41-3.39,4.62-5.56,7.94-5.56,1.66,0,3.34.54,4.84,1.75,1.32,1.1,2.32,2.67,2.51,4.4.49,3.27-2.13,6.76-5.47,6.76-.2,0-.4-.01-.61-.04-2.6-.25-4.88-2.92-4.05-5.54.42-1.49,1.83-2.72,3.39-2.72.19,0,.37.02.56.05.86.15,1.64.66,2.11,1.38.13.2.07.47-.13.6-.07.05-.15.07-.23.07-.14,0-.27-.06-.35-.18-.42-.61-1.13-.93-1.84-.93-.5,0-1,.16-1.39.5-.99.76-1.34,2.19-.83,3.31.6,1.31,1.87,1.97,3.15,1.97,1.11,0,2.23-.5,2.95-1.5,2.6-3.32-.5-7.6-4.3-7.6-.08,0-.15,0-.23,0-5.38.25-7.79,7.32-4.25,11.16,1.61,2.02,4.18,3.12,6.73,3.12,1.15,0,2.3-.23,3.36-.7,2.26-1.02,4.08-2.97,5.12-5.2,1.89-4.01,1.01-8.83-2-12-2.7-2.96-6.37-4.46-10.06-4.46-3.24,0-6.5,1.16-9.1,3.52-4.49,3.87-6.71,10.18-5.53,15.98.45,2.4,1.43,4.68,2.86,6.66,1.95,2.95-.45,5.85-3.04,5.85-1.08,0-2.19-.5-3.04-1.7-6.13-9.22-4.86-21.97,3.03-29.73,1.54-1.46,3.25-2.8,5.13-3.82,2.29-1.22,4.87-1.97,7.46-2.19.5-.04,1-.06,1.5-.06Z"/>
        </g>
        <path class="cls-3"
              d="M56.56,72.22c.4.26.85.39,1.32.39.17,0,.34-.02.51-.05.63-.14,1.18-.51,1.53-1.05.73-1.12.41-2.63-.72-3.36-1.12-.73-2.63-.41-3.36.72-.35.54-.47,1.19-.34,1.83s.51,1.18,1.05,1.53Z"/>
    </g>
    <g class="cls-4">
        <g>
            <path class="cls-1"
                  d="M41.17,37.29c-9.94,9.78-11.54,25.84-3.81,37.46,1.07,1.51,2.47,2.14,3.83,2.14,3.27,0,6.28-3.65,3.83-7.37-1.79-2.49-3.03-5.36-3.6-8.39-1.48-7.31,1.32-15.26,6.97-20.14,3.28-2.97,7.38-4.43,11.47-4.43,4.65,0,9.29,1.9,12.68,5.62,3.79,4,4.9,10.07,2.52,15.13-1.32,2.81-3.61,5.27-6.46,6.55-1.33.6-2.77.89-4.23.89-3.2,0-6.44-1.39-8.48-3.94-4.45-4.84-1.42-13.75,5.36-14.07.1,0,.19,0,.29,0,4.79,0,8.69,5.4,5.42,9.58-.9,1.26-2.31,1.89-3.71,1.89-1.61,0-3.21-.83-3.97-2.48-.64-1.41-.19-3.22,1.05-4.17.5-.43,1.13-.63,1.76-.63.89,0,1.78.41,2.31,1.17.11.15.28.23.45.23.1,0,.2-.03.3-.09.26-.16.33-.51.16-.76-.59-.91-1.58-1.56-2.66-1.74-.24-.05-.47-.07-.71-.07-1.96,0-3.74,1.54-4.27,3.43-1.05,3.31,1.82,6.67,5.1,6.98.26.03.52.05.77.05,4.2,0,7.51-4.4,6.89-8.51-.25-2.18-1.51-4.15-3.17-5.54-1.88-1.52-4.01-2.21-6.1-2.21-4.18,0-8.23,2.74-10.01,7.01-2.75,6.33.64,13.46,6.54,16.54,2.18,1.19,4.64,1.78,7.12,1.78,3.51,0,7.03-1.17,9.77-3.42,6.56-4.99,9.01-14.33,5.92-21.98-3.49-8.55-12.44-14.14-21.59-14.14-.63,0-1.26.03-1.88.08-3.26.28-6.51,1.22-9.4,2.76-2.37,1.28-4.52,2.97-6.46,4.81Z"/>
            <path
                d="M34.56,76.61l.03.04.03.04c1.63,2.29,3.96,3.55,6.57,3.55h0c2.94,0,5.76-1.69,7.16-4.3,1.41-2.62,1.22-5.64-.52-8.28l-.04-.06-.04-.06c-1.5-2.08-2.55-4.52-3.02-7.04-1.23-6.08,1.13-12.88,5.87-16.97l.03-.03.03-.03c2.54-2.3,5.81-3.56,9.21-3.56,2.42,0,4.78.65,6.85,1.84-1.73-.83-3.61-1.26-5.55-1.26-5.57,0-10.83,3.64-13.1,9.05-3.29,7.59.24,16.73,8.05,20.82,2.61,1.42,5.62,2.17,8.71,2.17,4.37,0,8.58-1.47,11.86-4.14,7.71-5.89,10.63-16.77,6.95-25.88-3.9-9.57-14.06-16.24-24.71-16.24-.72,0-1.45.03-2.17.09-3.76.32-7.46,1.41-10.7,3.14-2.42,1.31-4.77,3.05-7.18,5.33l-.02.02-.02.02c-11.03,10.85-12.86,28.78-4.25,41.72ZM58.92,29.64c9.15,0,18.11,5.59,21.59,14.14,3.09,7.65.65,16.99-5.92,21.98-2.74,2.25-6.26,3.42-9.77,3.42-2.48,0-4.95-.58-7.12-1.78-5.9-3.08-9.3-10.21-6.54-16.54,1.77-4.27,5.83-7.01,10.01-7.01,2.09,0,4.21.69,6.1,2.21,1.66,1.39,2.92,3.36,3.17,5.54.62,4.12-2.69,8.51-6.89,8.51-.25,0-.51-.02-.77-.05-3.28-.31-6.15-3.67-5.1-6.98.53-1.88,2.31-3.43,4.27-3.43.23,0,.47.02.71.07,1.08.18,2.07.83,2.66,1.74.17.25.09.6-.16.76-.09.06-.19.09-.3.09-.17,0-.34-.08-.45-.23-.53-.76-1.42-1.17-2.31-1.17-.63,0-1.26.2-1.76.63-1.24.95-1.68,2.76-1.05,4.17.76,1.64,2.35,2.48,3.97,2.48,1.4,0,2.81-.62,3.71-1.89,3.28-4.18-.62-9.58-5.42-9.58-.1,0-.19,0-.29,0-6.78.32-9.81,9.22-5.36,14.07,2.03,2.54,5.27,3.94,8.48,3.94,1.45,0,2.9-.29,4.23-.89,2.85-1.28,5.14-3.74,6.46-6.55,2.38-5.06,1.27-11.12-2.52-15.13-3.4-3.73-8.03-5.62-12.68-5.62-4.09,0-8.18,1.46-11.47,4.43-5.65,4.88-8.45,12.82-6.97,20.14.57,3.03,1.81,5.9,3.6,8.39,2.45,3.72-.56,7.37-3.83,7.37-1.36,0-2.76-.63-3.83-2.14-7.73-11.62-6.13-27.69,3.81-37.46,1.94-1.84,4.09-3.53,6.46-4.81,2.89-1.54,6.14-2.48,9.4-2.76.63-.05,1.26-.08,1.88-.08Z"/>
        </g>
        <path class="cls-3"
              d="M39.46,74.62c.5.33,1.07.49,1.66.49.21,0,.43-.02.64-.07.8-.17,1.48-.64,1.93-1.33.92-1.42.51-3.32-.9-4.23-1.42-.92-3.32-.51-4.23.9-.44.69-.6,1.5-.42,2.3s.64,1.48,1.33,1.93Z"/>
    </g>
    <g>
        <g>
            <path class="cls-1"
                  d="M22.86,31.25c-11.83,11.63-13.73,30.75-4.54,44.58,1.28,1.8,2.94,2.54,4.56,2.54,3.89,0,7.48-4.35,4.56-8.77-2.13-2.96-3.6-6.38-4.28-9.98-1.76-8.7,1.57-18.15,8.3-23.96,3.9-3.53,8.78-5.28,13.64-5.28,5.53,0,11.05,2.26,15.09,6.69,4.51,4.76,5.83,11.98,2.99,18-1.57,3.34-4.29,6.27-7.68,7.79-1.58.71-3.3,1.05-5.03,1.05-3.81,0-7.67-1.66-10.09-4.68-5.3-5.76-1.69-16.36,6.38-16.74.11,0,.23,0,.34,0,5.7,0,10.35,6.43,6.44,11.4-1.07,1.5-2.75,2.25-4.42,2.24-1.92,0-3.81-.99-4.72-2.95-.76-1.68-.23-3.83,1.25-4.96.59-.51,1.34-.75,2.09-.75,1.06,0,2.12.48,2.75,1.39.13.18.33.27.53.27.12,0,.24-.03.35-.1.3-.2.39-.6.19-.9-.7-1.08-1.87-1.86-3.16-2.07-.28-.05-.56-.08-.84-.08-2.33,0-4.45,1.84-5.08,4.08-1.25,3.93,2.17,7.94,6.07,8.31.31.04.61.06.92.06,5,0,8.93-5.23,8.2-10.13-.29-2.59-1.79-4.94-3.77-6.59-2.24-1.81-4.77-2.63-7.26-2.63-4.97,0-9.79,3.26-11.91,8.34-3.28,7.53.76,16.02,7.79,19.68,2.59,1.42,5.53,2.11,8.47,2.11,4.17,0,8.37-1.39,11.63-4.07,7.81-5.94,10.72-17.05,7.04-26.15-4.15-10.17-14.8-16.82-25.69-16.82-.75,0-1.5.03-2.24.09-3.88.33-7.75,1.45-11.18,3.28-2.82,1.52-5.37,3.54-7.69,5.72Z"/>
            <path
                d="M14.99,78.05l.03.05.04.05c1.94,2.72,4.71,4.22,7.81,4.22h0c3.5,0,6.85-2.01,8.52-5.12,1.68-3.11,1.45-6.71-.62-9.85l-.05-.07-.05-.07c-1.79-2.48-3.03-5.37-3.6-8.38-1.46-7.23,1.35-15.33,6.98-20.19l.04-.03.03-.03c3.02-2.73,6.91-4.24,10.96-4.24,2.88,0,5.69.77,8.15,2.19-2.06-.99-4.29-1.5-6.6-1.5-6.63,0-12.89,4.33-15.59,10.77-3.91,9.03.29,19.91,9.58,24.78,3.1,1.69,6.68,2.59,10.36,2.59,5.2,0,10.21-1.75,14.11-4.93,9.17-7.01,12.65-19.95,8.27-30.79-4.64-11.38-16.73-19.32-29.4-19.32-.86,0-1.73.04-2.58.11-4.47.39-8.87,1.68-12.73,3.74-2.88,1.56-5.68,3.63-8.55,6.34l-.03.03-.03.03c-13.12,12.91-15.3,34.25-5.06,49.64ZM43.97,22.15c10.89,0,21.55,6.65,25.69,16.82,3.68,9.1.77,20.22-7.04,26.15-3.26,2.68-7.45,4.07-11.63,4.07-2.95,0-5.88-.69-8.47-2.11-7.02-3.67-11.06-12.16-7.79-19.68,2.11-5.08,6.93-8.34,11.91-8.34,2.49,0,5.02.82,7.26,2.63,1.98,1.66,3.48,4,3.77,6.59.73,4.9-3.2,10.13-8.2,10.13-.3,0-.61-.02-.92-.06-3.9-.37-7.32-4.37-6.07-8.31.64-2.24,2.75-4.08,5.08-4.08.28,0,.56.03.84.08,1.29.22,2.46.99,3.16,2.07.2.3.11.71-.19.9-.11.07-.23.1-.35.1-.2,0-.41-.1-.53-.27-.63-.91-1.69-1.39-2.75-1.39-.75,0-1.5.24-2.09.75-1.48,1.14-2,3.28-1.25,4.96.91,1.96,2.8,2.95,4.72,2.95,1.66,0,3.34-.74,4.42-2.24,3.9-4.98-.74-11.4-6.44-11.4-.11,0-.23,0-.34,0-8.07.38-11.68,10.98-6.38,16.74,2.42,3.02,6.27,4.68,10.09,4.68,1.73,0,3.45-.34,5.03-1.05,3.39-1.53,6.11-4.45,7.68-7.79,2.83-6.02,1.51-13.24-2.99-18-4.04-4.43-9.56-6.69-15.09-6.69-4.86,0-9.74,1.74-13.64,5.28-6.73,5.81-10.05,15.26-8.3,23.96.68,3.61,2.15,7.02,4.28,9.98,2.92,4.43-.67,8.77-4.56,8.77-1.61,0-3.28-.75-4.56-2.54-9.2-13.83-7.29-32.94,4.54-44.58,2.31-2.19,4.87-4.2,7.69-5.72,3.43-1.84,7.31-2.95,11.18-3.28.75-.06,1.5-.09,2.24-.09Z"/>
        </g>
        <path class="cls-3"
              d="M20.82,75.68c.6.39,1.28.59,1.97.59.26,0,.51-.03.77-.08.95-.2,1.77-.76,2.3-1.58,1.09-1.69.61-3.95-1.07-5.04-1.69-1.09-3.95-.61-5.04,1.08-.53.82-.71,1.79-.51,2.74s.76,1.77,1.58,2.3Z"/>
    </g>
</svg>