<?xml version="1.0" encoding="UTF-8"?>
<svg id="icons" xmlns="http://www.w3.org/2000/svg" viewBox="0 0 100 100">
  <defs>
    <style>
      .cls-1 {
        fill: #fff;
      }
    </style>
  </defs>
  <path d="M75.81,41.14c1.89,0,3.68,1.6,3.68,3.68s-1.6,3.68-3.68,3.68H23.45c-2.08,0-3.68-1.61-3.68-3.68s1.79-3.68,3.68-3.68h52.36ZM75.81,58.14c1.89,0,3.68,1.61,3.68,3.68s-1.6,3.69-3.68,3.69H23.45c-2.08,0-3.68-1.61-3.68-3.69s1.79-3.68,3.68-3.68h52.36Z"/>
  <path class="cls-1" d="M74.49,38.49c1.89,0,3.68,1.6,3.68,3.68s-1.6,3.68-3.68,3.68H22.12c-2.08,0-3.68-1.61-3.68-3.68s1.79-3.68,3.68-3.68h52.36ZM74.49,55.49c1.89,0,3.68,1.61,3.68,3.68s-1.6,3.69-3.68,3.69H22.12c-2.08,0-3.68-1.61-3.68-3.69s1.79-3.68,3.68-3.68h52.36Z"/>
</svg>