<?xml version="1.0" encoding="UTF-8"?>
<svg id="icons" xmlns="http://www.w3.org/2000/svg" viewBox="0 0 100 100">
  <defs>
    <style>
      .cls-1 {
        fill: #fff;
      }

      .cls-2 {
        fill: #ed1e79;
      }

      .cls-3 {
        fill: #999;
      }
    </style>
  </defs>
  <path class="cls-1" d="M65.46,84.82c-10.18,0-18.47-8.29-18.47-18.47s8.28-18.47,18.47-18.47c4.37,0,8.38,1.54,11.54,4.08l-9.16,7.92,24.12,3.56-.05-24.38-8.47,7.32c-4.76-4.29-11.06-6.91-17.98-6.91-14.84,0-26.87,12.03-26.87,26.87s12.03,26.87,26.87,26.87c11.64,0,21.55-7.4,25.29-17.76l-8.59-1.27c-2.96,6.26-9.32,10.62-16.7,10.62Z"/>
  <path class="cls-3" d="M44.91,6.78h8.99c3.7,0,6.71,3.01,6.71,6.71v8.99c0,3.7-3.01,6.71-6.71,6.71h-8.99c-3.7,0-6.71-3.01-6.71-6.71v-8.99c0-3.7,3.01-6.71,6.71-6.71Z"/>
  <path class="cls-1" d="M13.55,6.78h8.99c3.7,0,6.71,3.01,6.71,6.71v8.99c0,3.7-3.01,6.71-6.71,6.71h-8.99c-3.7,0-6.71-3.01-6.71-6.71v-8.99c0-3.7,3.01-6.71,6.71-6.71Z"/>
  <path class="cls-1" d="M13.55,70.81h8.99c3.7,0,6.71,3.01,6.71,6.71v8.99c0,3.7-3.01,6.71-6.71,6.71h-8.99c-3.7,0-6.71-3.01-6.71-6.71v-8.99c0-3.7,3.01-6.71,6.71-6.71Z"/>
  <path class="cls-2" d="M17.69,57.24c-4.11,0-7.45-3.34-7.45-7.45s3.34-7.45,7.45-7.45c1.76,0,3.38.62,4.66,1.65l-3.69,3.2,9.73,1.44-.02-9.84-3.42,2.96c-1.92-1.73-4.47-2.79-7.26-2.79-5.99,0-10.84,4.86-10.84,10.85s4.86,10.85,10.84,10.85c4.7,0,8.7-2.99,10.2-7.17l-3.47-.51c-1.19,2.53-3.76,4.29-6.74,4.29Z"/>
  <path class="cls-2" d="M80.83,25.52c-4.11,0-7.45-3.34-7.45-7.45s3.34-7.45,7.45-7.45c1.76,0,3.38.62,4.66,1.65l-3.69,3.2,9.73,1.44-.02-9.84-3.42,2.96c-1.92-1.73-4.47-2.79-7.26-2.79-5.99,0-10.84,4.86-10.84,10.85s4.86,10.85,10.84,10.85c4.7,0,8.7-2.99,10.2-7.17l-3.47-.51c-1.19,2.53-3.76,4.29-6.74,4.29Z"/>
</svg>