<?xml version="1.0" encoding="UTF-8"?>
<svg id="icons" xmlns="http://www.w3.org/2000/svg" viewBox="0 0 100 100">
  <defs>
    <style>
      .cls-1 {
        fill: #fff;
      }
    </style>
  </defs>
  <path d="M85.62,87.83c-1.04.99-2.34,1.48-3.89,1.48h-8.18c-.8,0-1.59-.08-2.37-.24-.78-.16-1.47-.44-2.08-.84-.62-.4-1.12-.92-1.53-1.56-.4-.65-.6-1.44-.6-2.41s.19-1.76.56-2.41c.37-.64.87-1.15,1.48-1.52s1.31-.64,2.09-.8c.78-.16,1.56-.24,2.36-.24h2.57V26.64h-2.57c-.74,0-1.51-.08-2.29-.24-.78-.16-1.47-.42-2.08-.8-.62-.38-1.12-.89-1.53-1.53-.4-.64-.6-1.47-.6-2.49,0-.96.2-1.75.6-2.36.4-.61.91-1.11,1.53-1.49.61-.37,1.31-.64,2.08-.8.78-.16,1.57-.24,2.37-.24h8.18c.69,0,1.36.14,2,.44.65.29,1.21.67,1.72,1.12.51.46.93.98,1.25,1.57s.48,1.2.48,1.84v62.59c0,1.39-.52,2.58-1.57,3.57Z"/>
  <path d="M20.35,41.81c-1.07-.48-1.93-1.15-2.57-2-.65-.86-.97-1.74-.97-2.65,0-1.44.5-2.68,1.49-3.69.99-1.02,2.31-1.53,3.97-1.53.16,0,.52.04,1.08.12.56.08,1.06.23,1.48.44l19.51,15.45c1.12.59,2.08,1.23,2.89,1.93.8.7,1.2,1.82,1.2,3.37s-.39,2.74-1.16,3.42c-.78.67-1.72,1.29-2.85,1.88l-19.59,15.29c-.37.21-.83.36-1.36.44-.54.08-.93.12-1.2.12-1.66,0-2.98-.52-3.97-1.57-.99-1.04-1.49-2.26-1.49-3.65,0-.91.33-1.81,1.01-2.69.67-.88,1.51-1.56,2.53-2.04l14.05-11.19-14.05-11.43Z"/>
  <path class="cls-1" d="M83.62,84.83c-1.04.99-2.34,1.48-3.89,1.48h-8.18c-.8,0-1.59-.08-2.37-.24-.78-.16-1.47-.44-2.08-.84-.62-.4-1.12-.92-1.53-1.56-.4-.65-.6-1.44-.6-2.41s.19-1.76.56-2.41c.37-.64.87-1.15,1.48-1.52s1.31-.64,2.09-.8c.78-.16,1.56-.24,2.36-.24h2.57V23.64h-2.57c-.74,0-1.51-.08-2.29-.24-.78-.16-1.47-.42-2.08-.8-.62-.38-1.12-.89-1.53-1.53-.4-.64-.6-1.47-.6-2.49,0-.96.2-1.75.6-2.36.4-.61.91-1.11,1.53-1.49.61-.37,1.31-.64,2.08-.8.78-.16,1.57-.24,2.37-.24h8.18c.69,0,1.36.14,2,.44.65.29,1.21.67,1.72,1.12.51.46.93.98,1.25,1.57s.48,1.2.48,1.84v62.59c0,1.39-.52,2.58-1.57,3.57Z"/>
  <path class="cls-1" d="M18.35,38.81c-1.07-.48-1.93-1.15-2.57-2-.65-.86-.97-1.74-.97-2.65,0-1.44.5-2.68,1.49-3.69.99-1.02,2.31-1.53,3.97-1.53.16,0,.52.04,1.08.12.56.08,1.06.23,1.48.44l19.51,15.45c1.12.59,2.08,1.23,2.89,1.93.8.7,1.2,1.82,1.2,3.37s-.39,2.74-1.16,3.42c-.78.67-1.72,1.29-2.85,1.88l-19.59,15.29c-.37.21-.83.36-1.36.44-.54.08-.93.12-1.2.12-1.66,0-2.98-.52-3.97-1.57-.99-1.04-1.49-2.26-1.49-3.65,0-.91.33-1.81,1.01-2.69.67-.88,1.51-1.56,2.53-2.04l14.05-11.19-14.05-11.43Z"/>
</svg>