<?xml version="1.0" encoding="UTF-8"?>
<svg id="Layer_1" data-name="Layer 1" xmlns="http://www.w3.org/2000/svg" viewBox="0 0 8 8">
    <defs>
        <style>
            .cls-1 {
            fill: #fff;
            }
        </style>
    </defs>
    <path class="cls-1"
          d="M1.34,5.79c-.09,0-.18-.02-.26-.07-.24-.14-.31-.45-.17-.69.5-.83,1.28-1.41,2.22-1.64.93-.24,1.9-.09,2.73.41.5.3.93.73,1.23,1.23.14.24.07.54-.17.69-.24.14-.54.07-.69-.17-.22-.36-.53-.67-.89-.89-.6-.36-1.29-.46-1.97-.29-.67.17-1.24.59-1.6,1.19-.09.16-.26.24-.43.24Z"/>
</svg>