<?xml version="1.0" encoding="UTF-8"?>
<svg id="Layer_1" data-name="Layer 1" xmlns="http://www.w3.org/2000/svg" viewBox="0 0 8 8">
    <defs>
        <style>
            .cls-1 {
            fill: #fff;
            }
        </style>
    </defs>
    <path class="cls-1"
          d="M5.55,7.16c-1.98,0-2.27-1.15-2.27-1.83,0-.61-.22-.83-.83-.83-.28,0-.5-.22-.5-.5s.22-.5.5-.5c.61,0,.83-.22.83-.83,0-.68.29-1.83,2.27-1.83.28,0,.5.22.5.5s-.22.5-.5.5c-1.27,0-1.27.54-1.27.83,0,.57-.16,1.02-.46,1.33.3.31.46.76.46,1.33,0,.29,0,.83,1.27.83.28,0,.5.22.5.5s-.22.5-.5.5Z"/>
</svg>