<?xml version="1.0" encoding="UTF-8"?>
<svg id="Layer_1" data-name="Layer 1" xmlns="http://www.w3.org/2000/svg" viewBox="0 0 8 8">
    <defs>
        <style>
            .cls-1 {
            fill: #fff;
            }
        </style>
    </defs>
    <path class="cls-1"
          d="M5.33,2.17c-.53,0-1,.23-1.33.58-.33-.36-.8-.58-1.33-.58-1.01,0-1.83.82-1.83,1.83s.82,1.83,1.83,1.83c.53,0,1-.23,1.33-.58.33.36.81.58,1.33.58,1.01,0,1.83-.82,1.83-1.83s-.82-1.83-1.83-1.83ZM5.33,4.83c-.46,0-.83-.37-.83-.83s.37-.83.83-.83.83.37.83.83-.37.83-.83.83Z"/>
</svg>