<?xml version="1.0" encoding="UTF-8"?>
<svg id="Layer_1" data-name="Layer 1" xmlns="http://www.w3.org/2000/svg" viewBox="0 0 8 8">
    <defs>
        <style>
            .cls-1 {
            fill: #fff;
            }
        </style>
    </defs>
    <path class="cls-1"
          d="M7.1,1.95h-3.1c-.21,0-.39.13-.46.32-.32-.2-.69-.32-1.09-.32C1.32,1.95.4,2.87.4,4s.92,2.05,2.05,2.05c.4,0,.77-.12,1.09-.32.07.19.25.32.46.32h3.1c.28,0,.5-.22.5-.5v-3.1c0-.28-.22-.5-.5-.5ZM2.45,5.05c-.58,0-1.05-.47-1.05-1.05s.47-1.05,1.05-1.05,1.05.47,1.05,1.05-.47,1.05-1.05,1.05ZM6.6,5.05h-2.1v-2.1h2.1v2.1Z"/>
</svg>