<?xml version="1.0" encoding="UTF-8"?>
<svg id="Layer_1" data-name="Layer 1" xmlns="http://www.w3.org/2000/svg" viewBox="0 0 8 8">
    <defs>
        <style>
            .cls-1 {
            fill: #fff;
            }
        </style>
    </defs>
    <path class="cls-1"
          d="M5.75,6.2c-.3-.13-.57-.25-.81-.37.74-.59,1.11-1.19,1.11-1.83s-.38-1.24-1.11-1.83c.24-.12.51-.25.81-.37.25-.11.37-.4.26-.66-.11-.25-.41-.37-.66-.26-.51.22-.96.44-1.35.67-.4-.22-.84-.45-1.36-.67-.25-.11-.55,0-.66.26-.11.25,0,.55.26.66.3.13.57.25.81.37-.74.59-1.11,1.19-1.11,1.83s.38,1.24,1.11,1.83c-.24.12-.51.25-.81.37-.25.11-.37.4-.26.66.08.19.27.3.46.3.07,0,.13-.01.2-.04.51-.22.96-.44,1.36-.67.4.22.84.45,1.35.67.06.03.13.04.2.04.19,0,.38-.11.46-.3.11-.25,0-.55-.26-.66ZM2.95,4c0-.25.19-.7,1.05-1.28.87.58,1.05,1.03,1.05,1.28s-.19.7-1.05,1.28c-.87-.58-1.05-1.03-1.05-1.28Z"/>
</svg>