<?xml version="1.0" encoding="UTF-8"?>
<svg id="Layer_1" data-name="Layer 1" xmlns="http://www.w3.org/2000/svg" viewBox="0 0 8 8">
    <defs>
        <style>
            .cls-1 {
            fill: #fff;
            }
        </style>
    </defs>
    <path class="cls-1"
          d="M6.88,4.88l-1.77-.88,1.77-.88c.25-.12.35-.42.22-.67-.12-.25-.42-.35-.67-.22l-1.94.97v-1.85c0-.28-.22-.5-.5-.5s-.5.22-.5.5v1.85l-1.94-.97c-.25-.12-.55-.02-.67.22-.12.25-.02.55.22.67l1.77.88-1.77.88c-.25.12-.35.42-.22.67.09.18.26.28.45.28.08,0,.15-.02.22-.05l1.94-.97v1.85c0,.28.22.5.5.5s.5-.22.5-.5v-1.85l1.94.97c.07.04.15.05.22.05.18,0,.36-.1.45-.28.12-.25.02-.55-.22-.67Z"/>
</svg>