<?xml version="1.0" encoding="UTF-8"?>
<svg id="Layer_1" data-name="Layer 1" xmlns="http://www.w3.org/2000/svg" viewBox="0 0 8 8">
    <defs>
        <style>
            .cls-1 {
            fill: #fff;
            }
        </style>
    </defs>
    <path class="cls-1"
          d="M5.33,7.38h-2.66c-.13,0-.26-.05-.35-.15l-1.55-1.55c-.09-.09-.15-.22-.15-.35v-2.66c0-.13.05-.26.15-.35l1.55-1.55c.09-.09.22-.15.35-.15h2.66c.13,0,.26.05.35.15l1.55,1.55c.09.09.15.22.15.35v2.66c0,.13-.05.26-.15.35l-1.55,1.55c-.09.09-.22.15-.35.15ZM2.88,6.38h2.25l1.26-1.26v-2.25l-1.26-1.26h-2.25l-1.26,1.26v2.25l1.26,1.26Z"/>
</svg>