<?xml version="1.0" encoding="UTF-8"?>
<svg id="Layer_1" data-name="Layer 1" xmlns="http://www.w3.org/2000/svg" viewBox="0 0 8 8">
    <defs>
        <style>
            .cls-1 {
            fill: #fff;
            }
        </style>
    </defs>
    <path class="cls-1"
          d="M4.31,7.38c-1.01,0-2-.45-2.67-1.3-1.15-1.47-.89-3.6.58-4.75.71-.56,1.6-.8,2.5-.69.9.11,1.7.56,2.25,1.28.17.22.13.53-.09.7-.22.17-.53.13-.7-.09-.81-1.04-2.31-1.22-3.34-.41-1.04.81-1.22,2.31-.41,3.34.81,1.03,2.31,1.22,3.34.41.15-.12.29-.26.41-.41.17-.22.48-.26.7-.08.22.17.25.48.08.7-.17.22-.37.41-.58.58-.62.48-1.35.71-2.08.71Z"/>
</svg>