<?xml version="1.0" encoding="UTF-8"?>
<svg id="Layer_1" data-name="Layer 1" xmlns="http://www.w3.org/2000/svg" viewBox="0 0 8 8">
    <defs>
        <style>
            .cls-1 {
            fill: #fff;
            }
        </style>
    </defs>
    <path class="cls-1"
          d="M7.46,3.64L4.35.54c-.19-.19-.52-.19-.71,0L.54,3.64c-.2.2-.2.51,0,.71l3.1,3.1c.09.09.22.15.35.15s.26-.05.35-.15l3.1-3.1c.2-.2.2-.51,0-.71ZM4.16,1.76c-.1-.03-.21-.03-.32,0l.16-.16.16.16ZM5.07,4l-1.07,1.07-1.07-1.07,1.07-1.07,1.07,1.07ZM1.76,3.84c-.03.1-.03.21,0,.31l-.15-.15.15-.15ZM3.85,6.24s.1.03.15.03.1-.01.15-.03l-.15.15-.15-.15ZM6.24,4.15s.03-.1.03-.15-.01-.1-.03-.15l.15.15-.15.15Z"/>
</svg>