<?xml version="1.0" encoding="UTF-8"?>
<svg id="Layer_1" data-name="Layer 1" xmlns="http://www.w3.org/2000/svg" viewBox="0 0 8 8">
    <defs>
        <style>
            .cls-1 {
            fill: #fff;
            }
        </style>
    </defs>
    <path class="cls-1"
          d="M5.55,7.38h-3.1c-.18,0-.35-.1-.44-.26L.46,4.24c-.08-.15-.08-.33,0-.47L2.01.88c.09-.16.26-.26.44-.26h3.1c.18,0,.35.1.44.26l1.55,2.88c.08.15.08.33,0,.47l-1.55,2.88c-.09.16-.26.26-.44.26ZM2.75,6.38h2.51l1.28-2.38-1.28-2.38h-2.51l-1.28,2.38,1.28,2.38Z"/>
</svg>