<?xml version="1.0" encoding="UTF-8"?>
<svg id="Layer_1" data-name="Layer 1" xmlns="http://www.w3.org/2000/svg" viewBox="0 0 8 8">
    <defs>
        <style>
            .cls-1 {
            fill: #fff;
            }
        </style>
    </defs>
    <path class="cls-1"
          d="M4,7.38c-.08,0-.16-.02-.24-.06C1.68,6.2.62,4.63.62,2.67c0-.18.1-.35.26-.44L3.76.68c.15-.08.33-.08.47,0l2.88,1.55c.16.09.26.26.26.44,0,1.96-1.06,3.53-3.14,4.65-.07.04-.16.06-.24.06ZM1.63,2.96c.1,1.38.88,2.48,2.37,3.35,1.5-.87,2.28-1.97,2.37-3.35l-2.37-1.28-2.37,1.28Z"/>
</svg>