<?xml version="1.0" encoding="UTF-8"?>
<svg id="Layer_1" data-name="Layer 1" xmlns="http://www.w3.org/2000/svg" viewBox="0 0 8 8">
    <defs>
        <style>
            .cls-1 {
            fill: #fff;
            }
        </style>
    </defs>
    <path class="cls-1"
          d="M3.85,1.36c1.59,0,2.88,1.29,2.88,2.88s-1.29,2.88-2.88,2.88c1.59,0,2.88-1.29,2.88-2.88s-1.29-2.88-2.88-2.88Z"/>
    <path class="cls-1"
          d="M3.85,7.38c-.28,0-.5-.22-.5-.5s.22-.5.5-.5c1.31,0,2.38-1.07,2.38-2.38s-1.07-2.38-2.38-2.38c-.28,0-.5-.22-.5-.5s.22-.5.5-.5c1.87,0,3.38,1.52,3.38,3.38s-1.52,3.38-3.38,3.38Z"/>
</svg>