<?xml version="1.0" encoding="UTF-8"?>
<svg id="Layer_1" data-name="Layer 1" xmlns="http://www.w3.org/2000/svg" viewBox="0 0 8 8">
    <defs>
        <style>
            .cls-1 {
            fill: #fff;
            }
        </style>
    </defs>
    <path class="cls-1"
          d="M5.33,7.38h-2.66c-.28,0-.5-.22-.5-.5v-1.05h-1.05c-.28,0-.5-.22-.5-.5v-2.66c0-.28.22-.5.5-.5h1.05v-1.05c0-.28.22-.5.5-.5h2.66c.28,0,.5.22.5.5v1.05h1.05c.28,0,.5.22.5.5v2.66c0,.28-.22.5-.5.5h-1.05v1.05c0,.28-.22.5-.5.5ZM3.17,6.38h1.66v-1.05c0-.28.22-.5.5-.5h1.05v-1.66h-1.05c-.28,0-.5-.22-.5-.5v-1.05h-1.66v1.05c0,.28-.22.5-.5.5h-1.05v1.66h1.05c.28,0,.5.22.5.5v1.05Z"/>
</svg>