<?xml version="1.0" encoding="UTF-8"?>
<svg id="Layer_1" data-name="Layer 1" xmlns="http://www.w3.org/2000/svg" viewBox="0 0 8 8">
    <defs>
        <style>
            .cls-1 {
            fill: #fff;
            }
        </style>
    </defs>
    <path class="cls-1"
          d="M1.56,3.12c1.64-.82,3.23-.82,4.87,0,.07.04.15.05.22.05.18,0,.36-.1.45-.28.12-.25.02-.55-.22-.67-1.92-.96-3.86-.96-5.77,0-.25.12-.35.42-.22.67.12.25.42.35.67.22ZM6.44,4.88c-1.64.82-3.23.82-4.87,0-.25-.12-.55-.02-.67.22-.12.25-.02.55.22.67.96.48,1.92.72,2.88.72s1.93-.24,2.88-.72c.25-.12.35-.42.22-.67-.12-.25-.42-.35-.67-.22Z"/>
</svg>