<?xml version="1.0" encoding="UTF-8"?>
<svg id="Layer_1" data-name="Layer 1" xmlns="http://www.w3.org/2000/svg" viewBox="0 0 8 8">
    <defs>
        <style>
            .cls-1 {
            fill: #fff;
            }
        </style>
    </defs>
    <path class="cls-1"
          d="M4,3.11c-.49,0-.89.4-.89.89s.4.89.89.89.89-.4.89-.89-.4-.89-.89-.89ZM4,1.06c-1.62,0-2.94,1.32-2.94,2.94s1.32,2.94,2.94,2.94,2.94-1.32,2.94-2.94-1.32-2.94-2.94-2.94ZM4,5.94c-1.07,0-1.94-.87-1.94-1.94s.87-1.94,1.94-1.94,1.94.87,1.94,1.94-.87,1.94-1.94,1.94Z"/>
</svg>