<?xml version="1.0" encoding="UTF-8"?>
<svg id="Layer_1" data-name="Layer 1" xmlns="http://www.w3.org/2000/svg" viewBox="0 0 8 8">
    <defs>
        <style>
            .cls-1 {
            fill: #fff;
            }
        </style>
    </defs>
    <path class="cls-1"
          d="M5.11,7.36c-.15,0-.29-.06-.38-.18l-.72-.87-.72.87c-.13.16-.36.22-.55.15-.2-.07-.33-.26-.33-.47v-1.5h-1.27c-.22,0-.42-.15-.48-.36-.06-.21.02-.44.21-.56l1.13-.74-.83-1.22c-.12-.18-.11-.42.02-.59.13-.17.36-.24.56-.16l1.38.49.42-1.28c.13-.41.82-.41.95,0l.42,1.28,1.38-.49c.2-.07.43,0,.56.16.13.17.14.41.02.59l-.83,1.22,1.13.74c.18.12.27.35.21.56-.06.21-.26.36-.48.36h-1.27v1.5c0,.21-.13.4-.33.47-.06.02-.11.03-.17.03ZM4,5.03c.15,0,.29.07.38.18l.22.27v-.61c0-.28.22-.5.5-.5h.1l-.16-.1c-.11-.07-.19-.19-.22-.32s0-.27.08-.38l.25-.38-.43.15c-.13.05-.27.04-.39-.02s-.21-.17-.25-.29l-.1-.31-.1.31c-.04.13-.13.23-.25.29-.12.06-.26.07-.39.02l-.43-.15.25.38c.08.11.1.25.08.38s-.1.25-.22.32l-.16.1h.1c.28,0,.5.22.5.5v.61l.22-.27c.09-.11.24-.18.38-.18Z"/>
</svg>