<?xml version="1.0" encoding="UTF-8"?>
<svg id="Layer_1" data-name="Layer 1" xmlns="http://www.w3.org/2000/svg" viewBox="0 0 8 8">
    <defs>
        <style>
            .cls-1 {
            fill: #fff;
            }
        </style>
    </defs>
    <path class="cls-1"
          d="M5.39,2c0-.77-.62-1.39-1.39-1.39s-1.39.62-1.39,1.39.62,1.39,1.39,1.39,1.39-.62,1.39-1.39ZM2,4.61c-.76,0-1.39.62-1.39,1.39s.62,1.39,1.39,1.39,1.39-.62,1.39-1.39-.62-1.39-1.39-1.39ZM6,4.61c-.76,0-1.39.62-1.39,1.39s.62,1.39,1.39,1.39,1.39-.62,1.39-1.39-.62-1.39-1.39-1.39Z"/>
</svg>