<?xml version="1.0" encoding="UTF-8"?>
<svg id="Layer_1" data-name="Layer 1" xmlns="http://www.w3.org/2000/svg" viewBox="0 0 8 8">
    <defs>
        <style>
            .cls-1 {
            fill: #fff;
            }
        </style>
    </defs>
    <path class="cls-1"
          d="M4,7.59c-.2,0-.39-.12-.46-.31l-.81-2.02-2.02-.81c-.19-.08-.31-.26-.31-.46s.12-.39.31-.46l2.02-.81.81-2.02c.15-.38.78-.38.93,0l.81,2.02,2.02.81c.19.08.31.26.31.46s-.12.39-.31.46l-2.02.81-.81,2.02c-.08.19-.26.31-.46.31ZM2.24,3.99l1.06.42c.13.05.23.15.28.28l.42,1.06.42-1.06c.05-.13.15-.23.28-.28l1.06-.42-1.06-.42c-.13-.05-.23-.15-.28-.28l-.42-1.06-.42,1.06c-.05.13-.15.23-.28.28l-1.06.42Z"/>
</svg>